<?xml version="1.0" encoding="UTF-8"?>
<svg version="1.1" xmlns="http://www.w3.org/2000/svg" width="512" height="512">
<path d="M0 0 C1.01790619 0.00215515 2.03581238 0.0043103 3.08456421 0.00653076 C17.69363523 0.05620146 32.02575853 0.30709809 46.375 3.3125 C47.34985352 3.51117676 48.32470703 3.70985352 49.32910156 3.91455078 C97.7109774 14.03517194 141.69928269 35.9516877 177.375 70.3125 C178.3640332 71.26068604 178.3640332 71.26068604 179.37304688 72.22802734 C188.86130305 81.37247479 197.6012044 90.66984009 205.375 101.3125 C206.23306152 102.46355017 207.09113451 103.61459177 207.94921875 104.765625 C213.98736829 112.95680614 219.34595521 121.47054105 224.375 130.3125 C224.73948242 130.94430176 225.10396484 131.57610352 225.47949219 132.22705078 C247.08534998 169.97532572 256.85198095 212.74189997 256.6875 255.9375 C256.68534485 256.95540619 256.6831897 257.97331238 256.68096924 259.02206421 C256.63129854 273.63113523 256.38040191 287.96325853 253.375 302.3125 C253.07698486 303.77478027 253.07698486 303.77478027 252.77294922 305.26660156 C242.65232806 353.6484774 220.7358123 397.63678269 186.375 433.3125 C185.74287598 433.97185547 185.11075195 434.63121094 184.45947266 435.31054688 C175.31502521 444.79880305 166.01765991 453.5387044 155.375 461.3125 C154.22394983 462.17056152 153.07290823 463.02863451 151.921875 463.88671875 C143.73224019 469.92427396 135.22961724 475.30707302 126.375 480.3125 C125.66778809 480.7146875 124.96057617 481.116875 124.23193359 481.53125 C101.09654164 494.5566741 75.92537591 503.30551461 49.9375 508.625 C49.21860596 508.77235596 48.49971191 508.91971191 47.7590332 509.0715332 C33.08339502 511.86090125 18.55831162 512.66142619 3.64770508 512.62817383 C0.70811513 512.6250221 -2.2304558 512.64854926 -5.16992188 512.67382812 C-18.54306192 512.71848737 -31.43916711 511.51301542 -44.625 509.3125 C-46.33055054 509.03031616 -46.33055054 509.03031616 -48.07055664 508.74243164 C-91.33802759 500.97044532 -132.38793216 480.98345309 -165.625 452.3125 C-166.37007813 451.67828125 -167.11515625 451.0440625 -167.8828125 450.390625 C-181.38779833 438.57948485 -194.05918743 425.82889772 -204.625 411.3125 C-205.48149066 410.16255169 -206.33826433 409.01281411 -207.1953125 407.86328125 C-213.23534209 399.67315742 -218.61867614 391.16870382 -223.625 382.3125 C-224.0271875 381.60528809 -224.429375 380.89807617 -224.84375 380.16943359 C-237.8691741 357.03404164 -246.61801461 331.86287591 -251.9375 305.875 C-252.08485596 305.15610596 -252.23221191 304.43721191 -252.3840332 303.6965332 C-255.35789088 288.05024391 -255.99800362 272.57681954 -255.9375 256.6875 C-255.93534485 255.66959381 -255.9331897 254.65168762 -255.93096924 253.60293579 C-255.88129854 238.99386477 -255.63040191 224.66174147 -252.625 210.3125 C-252.42632324 209.33764648 -252.22764648 208.36279297 -252.02294922 207.35839844 C-241.90232806 158.9765226 -219.9858123 114.98821731 -185.625 79.3125 C-184.99287598 78.65314453 -184.36075195 77.99378906 -183.70947266 77.31445312 C-174.56502521 67.82619695 -165.26765991 59.0862956 -154.625 51.3125 C-153.47394983 50.45443848 -152.32290823 49.59636549 -151.171875 48.73828125 C-142.98224019 42.70072604 -134.47961724 37.31792698 -125.625 32.3125 C-124.91778809 31.9103125 -124.21057617 31.508125 -123.48193359 31.09375 C-100.34654164 18.0683259 -75.17537591 9.31948539 -49.1875 4 C-48.46860596 3.85264404 -47.74971191 3.70528809 -47.0090332 3.5534668 C-31.36274391 0.57960912 -15.88931954 -0.06050362 0 0 Z " fill="#FED92D" transform="translate(255.625,-0.3125)"/>
<path d="M0 0 C47.52 0 95.04 0 144 0 C144 13.86 144 27.72 144 42 C160.83 42 177.66 42 195 42 C194.14645088 46.26774561 193.23825935 48.89404623 191.33203125 52.69238281 C190.77475342 53.80993958 190.21747559 54.92749634 189.64331055 56.07891846 C189.03322759 57.28708187 188.42295289 58.49514846 187.8125 59.703125 C187.18809112 60.94888315 186.56415598 62.19487885 185.94067383 63.44110107 C184.63629537 66.04526599 183.3280232 68.64742186 182.01660156 71.24804688 C180.33305794 74.58675864 178.65654531 77.92893718 176.9825592 81.27244949 C175.6958398 83.84173999 174.40685927 86.40989001 173.11703491 88.97762299 C172.49785989 90.21026591 171.87906444 91.44309957 171.26065063 92.67612457 C170.39852128 94.39353624 169.53332273 96.10940617 168.66796875 97.82519531 C167.92969849 99.29149384 167.92969849 99.29149384 167.17651367 100.78741455 C166 103 166 103 165 104 C163.5112814 104.08669432 162.018555 104.10703494 160.52734375 104.09765625 C159.71773193 104.09515869 158.90812012 104.09266113 158.07397461 104.09008789 C157.03893799 104.08098389 156.00390137 104.07187988 154.9375 104.0625 C151.658125 104.041875 148.37875 104.02125 145 104 C145 110.6 145 117.2 145 124 C161.83 124 178.66 124 196 124 C194.52296129 127.69259677 192.98948934 131.14754014 191.21850586 134.69238281 C190.66130356 135.80993958 190.10410126 136.92749634 189.53001404 138.07891846 C188.92505942 139.28703846 188.3200002 140.49510608 187.71484375 141.703125 C187.09221397 142.94905858 186.46970294 144.19505151 185.8473053 145.44110107 C184.54655675 148.04406849 183.2443717 150.64631078 181.94116211 153.24804688 C180.2682579 156.58813701 178.59897438 159.9300215 176.93074703 163.27244949 C175.64798884 165.84157124 174.36333489 168.40974128 173.07809639 170.97762299 C172.46149481 172.21015791 171.84548989 173.44299152 171.23008537 174.67612457 C170.37268827 176.39344717 169.51246561 178.10935819 168.65209961 179.82519531 C168.16293564 180.80272766 167.67377167 181.78026001 167.16978455 182.78741455 C166 185 166 185 165 186 C163.43827255 186.08685603 161.87270656 186.10702219 160.30859375 186.09765625 C159.45837646 186.09515869 158.60815918 186.09266113 157.73217773 186.09008789 C156.64493408 186.08098389 155.55769043 186.07187988 154.4375 186.0625 C150.993125 186.041875 147.54875 186.02125 144 186 C144 192.93 144 199.86 144 207 C161.16 207 178.32 207 196 207 C185.62410729 228.90466239 185.62410729 228.90466239 181.5625 237.0078125 C181.11148926 237.91079071 180.66047852 238.81376892 180.19580078 239.74411011 C179.2661157 241.60414768 178.33546311 243.463702 177.40380859 245.32275391 C175.97058893 248.18370961 174.54178825 251.04684501 173.11328125 253.91015625 C172.20077809 255.7345037 171.28802763 257.55872748 170.375 259.3828125 C169.94904541 260.23674591 169.52309082 261.09067932 169.08422852 261.9704895 C168.69291748 262.74995941 168.30160645 263.52942932 167.8984375 264.33251953 C167.38289307 265.36241501 167.38289307 265.36241501 166.85693359 266.41311646 C166 268 166 268 165 269 C163.5112814 269.08669432 162.018555 269.10703494 160.52734375 269.09765625 C159.62822266 269.09443359 158.72910156 269.09121094 157.80273438 269.08789062 C156.85720703 269.07951172 155.91167969 269.07113281 154.9375 269.0625 C153.5134082 269.05573242 153.5134082 269.05573242 152.06054688 269.04882812 C149.70696935 269.0370011 147.35351523 269.02052025 145 269 C145.00523682 270.2367749 145.01047363 271.4735498 145.01586914 272.74780273 C145.03391561 277.31924725 145.04543071 281.89068859 145.05493164 286.4621582 C145.05997267 288.44393441 145.06680538 290.42570689 145.07543945 292.4074707 C145.08751515 295.24952109 145.09323045 298.09152247 145.09765625 300.93359375 C145.10281754 301.82525742 145.10797882 302.71692108 145.11329651 303.63560486 C145.11349177 305.75740601 145.0621003 307.8791078 145 310 C144 311 144 311 141.94358826 311.12025452 C140.58790489 311.1169236 140.58790489 311.1169236 139.20483398 311.11352539 C138.18385117 311.11344986 137.16286835 311.11337433 136.11094666 311.11329651 C135.0005452 311.10813522 133.89014374 311.10297394 132.74609375 311.09765625 C131.61551041 311.0962413 130.48492706 311.09482635 129.32008362 311.09336853 C125.69252935 311.08775019 122.06503576 311.07519458 118.4375 311.0625 C115.98502693 311.05748736 113.5325529 311.05292405 111.08007812 311.04882812 C105.05334296 311.0386237 99.02673978 311.01905186 93 311 C93 324.53 93 338.06 93 352 C79.47 352 65.94 352 52 352 C52 338.14 52 324.28 52 310 C34.84 310 17.68 310 0 310 C0 296.47 0 282.94 0 269 C-6.93 269 -13.86 269 -21 269 C-27.73435317 256.30128322 -34.31024523 243.53933406 -40.7265625 230.67724609 C-42.1558161 227.81324944 -43.58947101 224.95148316 -45.0234375 222.08984375 C-45.93515319 220.26575361 -46.84662159 218.44153984 -47.7578125 216.6171875 C-48.18579132 215.76325409 -48.61377014 214.90932068 -49.05471802 214.0295105 C-49.44287689 213.25004059 -49.83103577 212.47057068 -50.23095703 211.66748047 C-50.74530807 210.63758499 -50.74530807 210.63758499 -51.27005005 209.58688354 C-52 208 -52 208 -52 207 C-34.84 207 -17.68 207 0 207 C0 200.07 0 193.14 0 186 C-6.93 186 -13.86 186 -21 186 C-27.56336386 173.61763218 -33.98927097 161.18225628 -40.24438477 148.64160156 C-41.59022607 145.94443489 -42.94046342 143.24949788 -44.29101562 140.5546875 C-45.15390313 138.82825358 -46.01654329 137.101696 -46.87890625 135.375 C-47.27985001 134.57513672 -47.68079376 133.77527344 -48.09388733 132.95117188 C-48.46194992 132.21189453 -48.83001251 131.47261719 -49.20922852 130.7109375 C-49.53214371 130.06431152 -49.8550589 129.41768555 -50.1877594 128.75146484 C-51 127 -51 127 -52 124 C-35.17 124 -18.34 124 -1 124 C-1 117.4 -1 110.8 -1 104 C-7.6 104 -14.2 104 -21 104 C-27.5618153 91.60940102 -34.0177815 79.17659748 -40.29931641 66.64160156 C-41.65355737 63.94309563 -43.01627722 61.24896571 -44.37890625 58.5546875 C-45.24531149 56.82838579 -46.11121713 55.10183323 -46.9765625 53.375 C-47.38266754 52.57513672 -47.78877258 51.77527344 -48.20718384 50.95117188 C-48.57532196 50.21189453 -48.94346008 49.47261719 -49.32275391 48.7109375 C-49.64788971 48.06431152 -49.97302551 47.41768555 -50.30801392 46.75146484 C-51 45 -51 45 -51 42 C-34.17 42 -17.34 42 0 42 C0 28.14 0 14.28 0 0 Z " fill="#575F64" transform="translate(184,89)"/>
<path d="M0 0 C6.77663287 5.59632798 12.99781103 11.74010547 19.26928711 17.88598633 C20.50175928 19.09087339 21.73430523 20.29568499 22.96691895 21.50042725 C34.17331597 32.46251386 45.32828832 43.47696244 56.46884823 54.50590992 C63.94851023 61.90890577 71.4434842 69.29493813 78.97875977 76.64135742 C85.5698386 83.06726974 92.13022616 89.52272151 98.65557295 96.0153982 C102.10419672 99.44479345 105.56579095 102.85810997 109.06446648 106.23649025 C112.35675817 109.41664692 115.60606813 112.63525164 118.82787323 115.88674927 C120.01118176 117.06699791 121.20895023 118.23296763 122.42228127 119.38232994 C128.27279772 124.93978005 132.50377643 129.3244843 132.78616959 137.69829911 C132.71256442 141.1711164 132.4005513 144.54731339 132 148 C131.85134738 149.93748351 131.70285282 151.87497917 131.5546875 153.8125 C131.34382642 155.5436515 131.11713475 157.27294508 130.875 159 C130.74375732 159.95656494 130.61251465 160.91312988 130.47729492 161.89868164 C122.74289314 214.57888371 98.90814428 263.67947049 62 302 C61.36787598 302.65935547 60.73575195 303.31871094 60.08447266 303.99804688 C50.94002521 313.48630305 41.64265991 322.2262044 31 330 C29.84894983 330.85806152 28.69790823 331.71613451 27.546875 332.57421875 C19.35724019 338.61177396 10.85461724 343.99457302 2 349 C1.29278809 349.4021875 0.58557617 349.804375 -0.14306641 350.21875 C-20.28297061 361.55768881 -41.66549528 369.21821528 -64 375 C-64.97936523 375.26312988 -65.95873047 375.52625977 -66.96777344 375.79736328 C-69.80222164 376.541158 -72.64413183 377.21886721 -75.5 377.875 C-76.76287842 378.20914917 -76.76287842 378.20914917 -78.05126953 378.55004883 C-81.38349579 379.24563676 -83.87146039 379.72715689 -86.83139801 377.81996727 C-87.42864433 377.26243074 -88.02589066 376.70489422 -88.64123535 376.13046265 C-89.33582352 375.48684155 -90.03041168 374.84322044 -90.74604797 374.18009567 C-91.86175423 373.10094831 -91.86175423 373.10094831 -93 372 C-94.16313972 370.87527723 -94.16313972 370.87527723 -95.34977722 369.72783279 C-98.00835222 367.1220892 -100.64207348 364.49307506 -103.27148438 361.85791016 C-104.27737184 360.85338063 -105.28347128 359.84906333 -106.2897644 358.84494019 C-108.99814398 356.14108407 -111.70339397 353.43411761 -114.40791893 350.72640657 C-117.24379058 347.88798977 -120.08211633 345.05202863 -122.92004395 342.21566772 C-127.67603329 337.46149172 -132.42992298 332.70522386 -137.18261719 327.94775391 C-142.68289609 322.44201204 -148.18679775 316.93991141 -153.69255209 311.43964541 C-158.42487349 306.71185287 -163.15525498 301.98212598 -167.88400126 297.25075758 C-170.70647835 294.42671927 -173.52963213 291.60336637 -176.35453796 288.78175735 C-179.00308347 286.13608799 -181.64919473 283.48800842 -184.29339981 280.83800125 C-185.26651653 279.86355648 -186.24049594 278.88997239 -187.21537399 277.91728973 C-188.5397231 276.59564981 -189.86072459 275.27065788 -191.18151855 273.94546509 C-192.29420734 272.83221076 -192.29420734 272.83221076 -193.42937469 271.69646645 C-195 270 -195 270 -195 269 C-178.5 269 -162 269 -145 269 C-145 282.86 -145 296.72 -145 311 C-131.14 311 -117.28 311 -103 311 C-103 297.14 -103 283.28 -103 269 C-77.755 268.505 -77.755 268.505 -52 268 C-51.67 254.47 -51.34 240.94 -51 227 C-41.1 226.505 -41.1 226.505 -31 226 C-21.1 206.2 -11.2 186.4 -1 166 C-17.83 165.67 -34.66 165.34 -52 165 C-52 158.07 -52 151.14 -52 144 C-45.07 143.67 -38.14 143.34 -31 143 C-30.13197754 141.25871826 -29.26395508 139.51743652 -28.36962891 137.72338867 C-25.50148769 131.97098235 -22.63149385 126.21950342 -19.76023293 120.46865368 C-18.01943008 116.98182902 -16.27937355 113.4946361 -14.54101562 110.0065918 C-12.86344159 106.64057994 -11.18391634 103.27554841 -9.50303268 99.91118813 C-8.86202758 98.62732998 -8.22172681 97.34311992 -7.58214188 96.0585537 C-6.68634561 94.25970451 -5.78781348 92.46221851 -4.88916016 90.66479492 C-4.12304916 89.12924202 -4.12304916 89.12924202 -3.34146118 87.56266785 C-2 85 -2 85 0 82 C-16.83 82 -33.66 82 -51 82 C-51 75.4 -51 68.8 -51 62 C-41.1 61.505 -41.1 61.505 -31 61 C-30.09644775 59.18765869 -29.19289551 57.37531738 -28.26196289 55.50805664 C-25.28222308 49.53203542 -22.30029166 43.5571098 -19.31726933 37.58272648 C-17.50805985 33.95908045 -15.69959921 30.33506468 -13.89282227 26.71020508 C-12.1504028 23.21453106 -10.40605256 19.71982695 -8.66033745 16.22579765 C-7.99338813 14.8900459 -7.32714505 13.55394128 -6.66160774 12.21748543 C-5.73206158 10.35117448 -4.80005226 8.48611394 -3.86743164 6.62133789 C-3.33670547 5.55766495 -2.80597931 4.493992 -2.25917053 3.39808655 C-1 1 -1 1 0 0 Z " fill="#FCBF00" transform="translate(380,131)"/>
<path d="M0 0 C23.76 0 47.52 0 72 0 C72 13.86 72 27.72 72 42 C88.83 42 105.66 42 123 42 C122.14645088 46.26774561 121.23825935 48.89404623 119.33203125 52.69238281 C118.77475342 53.80993958 118.21747559 54.92749634 117.64331055 56.07891846 C117.03322759 57.28708187 116.42295289 58.49514846 115.8125 59.703125 C115.18809112 60.94888315 114.56415598 62.19487885 113.94067383 63.44110107 C112.63629537 66.04526599 111.3280232 68.64742186 110.01660156 71.24804688 C108.33305794 74.58675864 106.65654531 77.92893718 104.9825592 81.27244949 C103.6958398 83.84173999 102.40685927 86.40989001 101.11703491 88.97762299 C100.49785989 90.21026591 99.87906444 91.44309957 99.26065063 92.67612457 C98.39852128 94.39353624 97.53332273 96.10940617 96.66796875 97.82519531 C96.17578857 98.80272766 95.6836084 99.78026001 95.17651367 100.78741455 C94 103 94 103 93 104 C91.5112814 104.08669432 90.018555 104.10703494 88.52734375 104.09765625 C87.71773193 104.09515869 86.90812012 104.09266113 86.07397461 104.09008789 C85.03893799 104.08098389 84.00390137 104.07187988 82.9375 104.0625 C79.658125 104.041875 76.37875 104.02125 73 104 C73 110.6 73 117.2 73 124 C89.83 124 106.66 124 124 124 C122.52296129 127.69259677 120.98948934 131.14754014 119.21850586 134.69238281 C118.66130356 135.80993958 118.10410126 136.92749634 117.53001404 138.07891846 C116.92505942 139.28703846 116.3200002 140.49510608 115.71484375 141.703125 C115.09221397 142.94905858 114.46970294 144.19505151 113.8473053 145.44110107 C112.54655675 148.04406849 111.2443717 150.64631078 109.94116211 153.24804688 C108.2682579 156.58813701 106.59897438 159.9300215 104.93074703 163.27244949 C103.64798884 165.84157124 102.36333489 168.40974128 101.07809639 170.97762299 C100.46149481 172.21015791 99.84548989 173.44299152 99.23008537 174.67612457 C98.37268827 176.39344717 97.51246561 178.10935819 96.65209961 179.82519531 C96.16293564 180.80272766 95.67377167 181.78026001 95.16978455 182.78741455 C94 185 94 185 93 186 C91.43827255 186.08685603 89.87270656 186.10702219 88.30859375 186.09765625 C87.45837646 186.09515869 86.60815918 186.09266113 85.73217773 186.09008789 C84.64493408 186.08098389 83.55769043 186.07187988 82.4375 186.0625 C78.993125 186.041875 75.54875 186.02125 72 186 C72 192.93 72 199.86 72 207 C89.16 207 106.32 207 124 207 C113.62410729 228.90466239 113.62410729 228.90466239 109.5625 237.0078125 C109.11148926 237.91079071 108.66047852 238.81376892 108.19580078 239.74411011 C107.2661157 241.60414768 106.33546311 243.463702 105.40380859 245.32275391 C103.97058893 248.18370961 102.54178825 251.04684501 101.11328125 253.91015625 C100.20077809 255.7345037 99.28802763 257.55872748 98.375 259.3828125 C97.94904541 260.23674591 97.52309082 261.09067932 97.08422852 261.9704895 C96.49726196 263.13969437 96.49726196 263.13969437 95.8984375 264.33251953 C95.55474121 265.01911652 95.21104492 265.7057135 94.85693359 266.41311646 C94 268 94 268 93 269 C86.4 269 79.8 269 73 269 C73 282.53 73 296.06 73 310 C48.91 310 24.82 310 0 310 C0 296.47 0 282.94 0 269 C4.29 268.01 8.58 267.02 13 266 C21.37289622 261.14752605 25.67091567 256.65634767 29.3125 247.8125 C31.00617038 238.42032789 30.86081543 230.33282646 26 222 C25.443125 220.948125 24.88625 219.89625 24.3125 218.8125 C17.73932986 210.81810388 9.89995435 208.87578082 0 207 C0 200.4 0 193.8 0 187 C2.9390625 186.195625 2.9390625 186.195625 5.9375 185.375 C15.35792955 182.43623557 21.47422995 178.73283496 26.80859375 170.34375 C30.90576089 162.28374906 31.69520598 153.31621582 28.9375 144.66796875 C24.78175393 135.6902021 19.58607884 130.13998553 10.3125 126.625 C6.85136815 125.47295901 3.6049711 124.72099422 0 124 C0 117.4 0 110.8 0 104 C2.7225 103.4121875 2.7225 103.4121875 5.5 102.8125 C14.34372914 100.57555675 20.90724696 96.69939883 26 89 C30.58955015 80.91840082 31.54257798 72.22230893 29.3046875 63.1953125 C25.76176879 53.4001843 20.44849636 48.7649349 11.1953125 44.26171875 C7.27715097 42.63410326 7.27715097 42.63410326 0 41 C0 27.47 0 13.94 0 0 Z " fill="#32393F" transform="translate(256,89)"/>
<path d="M0 0 C16.83 0 33.66 0 51 0 C50.14645088 4.26774561 49.23825935 6.89404623 47.33203125 10.69238281 C46.77475342 11.80993958 46.21747559 12.92749634 45.64331055 14.07891846 C45.03322759 15.28708187 44.42295289 16.49514846 43.8125 17.703125 C43.18809112 18.94888315 42.56415598 20.19487885 41.94067383 21.44110107 C40.63629537 24.04526599 39.3280232 26.64742186 38.01660156 29.24804688 C36.33305794 32.58675864 34.65654531 35.92893718 32.9825592 39.27244949 C31.6958398 41.84173999 30.40685927 44.40989001 29.11703491 46.97762299 C28.49785989 48.21026591 27.87906444 49.44309957 27.26065063 50.67612457 C26.39852128 52.39353624 25.53332273 54.10940617 24.66796875 55.82519531 C24.17578857 56.80272766 23.6836084 57.78026001 23.17651367 58.78741455 C22 61 22 61 21 62 C19.5112814 62.08669432 18.018555 62.10703494 16.52734375 62.09765625 C15.71773193 62.09515869 14.90812012 62.09266113 14.07397461 62.09008789 C13.03893799 62.08098389 12.00390137 62.07187988 10.9375 62.0625 C7.658125 62.041875 4.37875 62.02125 1 62 C1 68.6 1 75.2 1 82 C17.83 82 34.66 82 52 82 C50.52296129 85.69259677 48.98948934 89.14754014 47.21850586 92.69238281 C46.66130356 93.80993958 46.10410126 94.92749634 45.53001404 96.07891846 C44.92505942 97.28703846 44.3200002 98.49510608 43.71484375 99.703125 C43.09221397 100.94905858 42.46970294 102.19505151 41.8473053 103.44110107 C40.54655675 106.04406849 39.2443717 108.64631078 37.94116211 111.24804688 C36.2682579 114.58813701 34.59897438 117.9300215 32.93074703 121.27244949 C31.64798884 123.84157124 30.36333489 126.40974128 29.07809639 128.97762299 C28.46149481 130.21015791 27.84548989 131.44299152 27.23008537 132.67612457 C26.37268827 134.39344717 25.51246561 136.10935819 24.65209961 137.82519531 C24.16293564 138.80272766 23.67377167 139.78026001 23.16978455 140.78741455 C22 143 22 143 21 144 C14.07 144 7.14 144 0 144 C0 96.48 0 48.96 0 0 Z " fill="#585F62" transform="translate(328,131)"/>
<path d="M0 0 C16.83 0 33.66 0 51 0 C51 47.52 51 95.04 51 144 C44.07 144 37.14 144 30 144 C23.43663614 131.61763218 17.01072903 119.18225628 10.75561523 106.64160156 C9.40977393 103.94443489 8.05953658 101.24949788 6.70898438 98.5546875 C5.84609687 96.82825358 4.98345671 95.101696 4.12109375 93.375 C3.72014999 92.57513672 3.31920624 91.77527344 2.90611267 90.95117188 C2.53805008 90.21189453 2.16998749 89.47261719 1.79077148 88.7109375 C1.46785629 88.06431152 1.1449411 87.41768555 0.8122406 86.75146484 C0 85 0 85 -1 82 C15.83 82 32.66 82 50 82 C50 75.4 50 68.8 50 62 C43.4 62 36.8 62 30 62 C23.4381847 49.60940102 16.9822185 37.17659748 10.70068359 24.64160156 C9.34644263 21.94309563 7.98372278 19.24896571 6.62109375 16.5546875 C5.75468851 14.82838579 4.88878287 13.10183323 4.0234375 11.375 C3.61733246 10.57513672 3.21122742 9.77527344 2.79281616 8.95117188 C2.42467804 8.21189453 2.05653992 7.47261719 1.67724609 6.7109375 C1.18954239 5.74099854 1.18954239 5.74099854 0.69198608 4.75146484 C0 3 0 3 0 0 Z " fill="#7D8386" transform="translate(133,131)"/>
<path d="M0 0 C7.72437031 4.48579443 12.77986718 10.28303477 15.77734375 18.73046875 C17.92247249 27.729855 17.09542348 36.47573064 12.4375 44.5 C7.35377734 51.81026449 0.27732344 57.59337141 -8.5625 59.5 C-17.59972464 60.4444045 -25.48369731 58.92267138 -33.078125 53.8046875 C-39.55406609 48.50813966 -42.94469348 42.35341957 -45.5625 34.5 C-46.25744167 26.27462485 -45.89203898 19.6166797 -41.5625 12.5 C-41.15 11.80132812 -40.7375 11.10265625 -40.3125 10.3828125 C-31.58283982 -2.76127811 -14.02388042 -6.55039478 0 0 Z " fill="#E43950" transform="translate(270.5625,133.5)"/>
<path d="M0 0 C7.45617066 5.119479 12.72242883 11.1415071 15 20 C16.22344765 29.76553711 15.05823409 38.03881158 9.4921875 46.21484375 C4.78727276 52.09051634 -1.47651844 56.63577803 -9 58 C-18.47392985 58.78020599 -25.93984856 58.46938848 -34 53 C-34.58265625 52.62746094 -35.1653125 52.25492187 -35.765625 51.87109375 C-41.51175563 47.70660008 -44.75956607 40.57193953 -47 34 C-48.00731337 24.63329381 -46.70465224 16.58483934 -41.3125 8.8125 C-30.74206151 -4.25735252 -15.01128166 -7.91192908 0 0 Z " fill="#FBBE00" transform="translate(272,217)"/>
<path d="M0 0 C8.39511585 5.21933189 13.31048652 11.49233391 16 21 C17.03436196 31.70631796 15.6158145 40.67224426 8.80078125 49.14453125 C2.00826074 56.14333221 -5.56373991 58.97361122 -15.1875 59.5 C-24.04608596 59.34709 -31.33330071 55.68041925 -37.9375 49.875 C-44.33985472 42.71942708 -46.95587565 33.71736913 -46.546875 24.2421875 C-45.06873414 15.47892381 -40.22508656 7.23435944 -33 2 C-22.98209143 -4.30340314 -10.70722865 -5.55043838 0 0 Z " fill="#B9B9BF" transform="translate(271,299)"/>
<path d="M0 0 C17.16 0 34.32 0 52 0 C41.62410729 21.90466239 41.62410729 21.90466239 37.5625 30.0078125 C37.11148926 30.91079071 36.66047852 31.81376892 36.19580078 32.74411011 C35.2661157 34.60414768 34.33546311 36.463702 33.40380859 38.32275391 C31.97058893 41.18370961 30.54178825 44.04684501 29.11328125 46.91015625 C28.20077809 48.7345037 27.28802763 50.55872748 26.375 52.3828125 C25.94904541 53.23674591 25.52309082 54.09067932 25.08422852 54.9704895 C24.69291748 55.74995941 24.30160645 56.52942932 23.8984375 57.33251953 C23.55474121 58.01911652 23.21104492 58.7057135 22.85693359 59.41311646 C22 61 22 61 21 62 C14.4 62 7.8 62 1 62 C1 75.53 1 89.06 1 103 C0.67 103 0.34 103 0 103 C0 69.01 0 35.02 0 0 Z " fill="#585F62" transform="translate(328,296)"/>
<path d="M0 0 C17.16 0 34.32 0 52 0 C52 20.46 52 40.92 52 62 C45.07 62 38.14 62 31 62 C24.26564683 49.30128322 17.68975477 36.53933406 11.2734375 23.67724609 C9.8441839 20.81324944 8.41052899 17.95148316 6.9765625 15.08984375 C6.06484681 13.26575361 5.15337841 11.44153984 4.2421875 9.6171875 C3.60021927 8.33628738 3.60021927 8.33628738 2.94528198 7.0295105 C2.55712311 6.25004059 2.16896423 5.47057068 1.76904297 4.66748047 C1.42614227 3.98088348 1.08324158 3.2942865 0.72994995 2.58688354 C0 1 0 1 0 0 Z " fill="#7C8287" transform="translate(132,296)"/>
<path d="M0 0 C30.36 0 60.72 0 92 0 C92 0.33 92 0.66 92 1 C75.17 1 58.34 1 41 1 C41 14.53 41 28.06 41 42 C27.47 42 13.94 42 0 42 C0 28.14 0 14.28 0 0 Z " fill="#5B6160" transform="translate(236,399)"/>
<path d="M0 0 C0 20.46 0 40.92 0 62 C-9.02258426 62 -14.18209876 60.01073305 -21.3125 54.75 C-27.16424303 48.76216992 -31.27902329 40.68613016 -31.3125 32.25 C-31.11726445 22.87869338 -28.41598583 15.88049159 -22 9 C-15.54403179 2.97987774 -8.83967266 0 0 0 Z " fill="#FDD82D" transform="translate(256,213)"/>
<path d="M0 0 C0 20.13 0 40.26 0 61 C-9.50056432 61 -14.23724473 60.16433679 -21.26953125 54.015625 C-27.93562234 47.04034602 -31.14014644 40.09731905 -31.5 30.4375 C-31.29024833 24.48055246 -30.08762253 20.07527954 -27 15 C-26.5875 14.30132812 -26.175 13.60265625 -25.75 12.8828125 C-19.55091546 3.54896363 -10.89665479 0 0 0 Z " fill="#FD627A" transform="translate(256,131)"/>
<path d="M0 0 C0 20.46 0 40.92 0 62 C-9.08295222 62 -16.10902051 58.95638108 -22.9375 52.875 C-29.33985472 45.71942708 -31.95587565 36.71736913 -31.546875 27.2421875 C-30.0747362 18.51450749 -25.23780434 10.18364654 -18 5 C-11.57356319 1.27893171 -7.60715335 0 0 0 Z " fill="#D1D1D6" transform="translate(256,296)"/>
<path d="M0 0 C6.6 0 13.2 0 20 0 C20 13.86 20 27.72 20 42 C13.4 42 6.8 42 0 42 C0 28.14 0 14.28 0 0 Z " fill="#7B8287" transform="translate(236,399)"/>
<path d="M0 0 C7.87700368 6.75171744 7.87700368 6.75171744 10.82397461 9.69458008 C11.48413071 10.35158401 12.1442868 11.00858795 12.82444763 11.6855011 C13.51015335 12.37323105 14.19585907 13.060961 14.90234375 13.76953125 C15.6249086 14.49113937 16.34747345 15.2127475 17.0919342 15.95622253 C18.60491691 17.46852918 20.11665536 18.98208158 21.62719727 20.49682617 C23.95149733 22.82652987 26.281148 25.15078851 28.61132812 27.47460938 C30.0836545 28.94759571 31.5556711 30.42089177 33.02734375 31.89453125 C33.72721909 32.59238235 34.42709442 33.29023346 35.1481781 34.00923157 C35.78626907 34.6504747 36.42436005 35.29171783 37.08178711 35.95239258 C37.92947914 36.801278 37.92947914 36.801278 38.79429626 37.66731262 C40 39 40 39 40 40 C26.8 40 13.6 40 0 40 C0 26.8 0 13.6 0 0 Z " fill="#FDBF00" transform="translate(329,90)"/>
<path d="M0 0 C6.27 0 12.54 0 19 0 C19 6.27 19 12.54 19 19 C14.33402656 15.0005942 9.87533865 11.03280669 5.5625 6.6875 C5.02173828 6.15060547 4.48097656 5.61371094 3.92382812 5.06054688 C0 1.12679757 0 1.12679757 0 0 Z " fill="#FDBF00" transform="translate(164,358)"/>
<path d="M0 0 C6.27 0 12.54 0 19 0 C19 6.27 19 12.54 19 19 C14.33402656 15.0005942 9.87533865 11.03280669 5.5625 6.6875 C5.02173828 6.15060547 4.48097656 5.61371094 3.92382812 5.06054688 C0 1.12679757 0 1.12679757 0 0 Z " fill="#FDBF01" transform="translate(164,276)"/>
<path d="M0 0 C6.27 0 12.54 0 19 0 C19 6.27 19 12.54 19 19 C14.33402656 15.0005942 9.87533865 11.03280669 5.5625 6.6875 C5.02173828 6.15060547 4.48097656 5.61371094 3.92382812 5.06054688 C0 1.12679757 0 1.12679757 0 0 Z " fill="#FDBF00" transform="translate(164,193)"/>
</svg>
