<?xml version="1.0" encoding="UTF-8"?>
<svg version="1.1" xmlns="http://www.w3.org/2000/svg" width="512" height="512">
<path d="M0 0 C1.19387329 -0.00193359 1.19387329 -0.00193359 2.41186523 -0.00390625 C7.80336655 0.09306914 11.59870394 1.08060197 16.4375 3.5 C20.22539209 4.73326719 23.7373414 4.50777488 27.6875 4.375 C37.66998112 4.09662569 43.90047269 6.49477661 51.27734375 13.40234375 C60.22464385 22.95495802 64.50346225 35.17534344 64.27734375 48.21484375 C63.06871106 65.35263546 53.58592713 77.9609259 43.26953125 91.0078125 C38.79577143 96.5412985 38.79577143 96.5412985 36.9140625 103.22265625 C37.37441121 105.87161197 37.97899882 107.94616168 39.125 110.375 C39.51171875 111.21546875 39.8984375 112.0559375 40.296875 112.921875 C42.69439535 116.13906043 45.58774871 117.45631909 49.125 119.125 C65.32247972 127.35829634 75.40206534 139.09853534 81.125 156.375 C82.15846432 160.45012599 82.94357905 164.55074041 83.6875 168.6875 C84.00110474 170.37045166 84.00110474 170.37045166 84.32104492 172.08740234 C86.22111617 182.47504564 87.75793071 192.90524985 89.125 203.375 C88.465 203.375 87.805 203.375 87.125 203.375 C87.455 206.345 87.785 209.315 88.125 212.375 C91.16322421 213.04291228 94.20292997 213.68699939 97.25 214.3125 C98.18690674 214.51012939 99.12381348 214.70775879 100.08911133 214.91137695 C105.17336403 215.90288016 109.88174805 216.48197437 115.06640625 216.265625 C129.16950668 215.70430167 129.16950668 215.70430167 133.05615234 219.02490234 C137.15775766 224.12170615 141.125 230.69933608 141.125 237.375 C138.30894174 238.92951103 135.47010414 240.43690824 132.625 241.9375 C131.83351563 242.37513672 131.04203125 242.81277344 130.2265625 243.26367188 C124.89172999 246.04040847 121.04805747 246.97858959 115.125 245.375 C114.30064453 245.15642334 113.47628906 244.93784668 112.62695312 244.71264648 C109.9437179 243.95780175 107.28489319 243.14564969 104.625 242.3125 C103.7071875 242.03083984 102.789375 241.74917969 101.84375 241.45898438 C99.60227797 240.7701987 97.36284969 240.07544695 95.125 239.375 C95.92409586 245.23153151 96.79002193 251.03916772 98.11328125 256.80078125 C100.69427388 268.04889839 101.86661184 278.83796847 102.125 290.375 C98.16762161 291.37880545 94.20894668 292.37739936 90.25 293.375 C89.12207031 293.66117187 87.99414062 293.94734375 86.83203125 294.2421875 C85.21748047 294.64824219 85.21748047 294.64824219 83.5703125 295.0625 C82.57531738 295.31386719 81.58032227 295.56523437 80.55517578 295.82421875 C78.125 296.375 78.125 296.375 76.125 296.375 C76.00382813 295.20582031 75.88265625 294.03664063 75.7578125 292.83203125 C75.58891599 291.28381329 75.41962432 289.73563839 75.25 288.1875 C75.17136719 287.41857422 75.09273437 286.64964844 75.01171875 285.85742188 C74.54538219 281.67832887 73.80700628 278.26374102 72.125 274.375 C72.4598283 270.85930284 73.12858851 269.36961723 75.125 266.375 C75.24351354 261.19003243 73.97635296 256.1885177 72.125 251.375 C71.17625 252.2 70.2275 253.025 69.25 253.875 C66.375 256.375 66.375 256.375 64.125 256.375 C64.06441406 257.30441406 64.00382813 258.23382813 63.94140625 259.19140625 C63.85761719 260.42761719 63.77382813 261.66382813 63.6875 262.9375 C63.56568359 264.76474609 63.56568359 264.76474609 63.44140625 266.62890625 C63.125 270.375 63.125 270.375 62.46044922 273.43652344 C62.01270158 278.69348481 63.14726184 283.05963426 64.44140625 288.13671875 C64.6949437 289.16376419 64.94848114 290.19080963 65.20970154 291.24897766 C65.74903665 293.41815749 66.29492208 295.58571786 66.84692383 297.75170898 C67.67916951 301.02968856 68.48252495 304.31379581 69.28320312 307.59960938 C75.72294826 333.52303101 87.48808615 347.22757374 108.2421875 363.9609375 C112.0430564 367.14377894 115.6431481 370.51832704 119.26000977 373.90673828 C124.35132072 378.64884781 129.67409551 383.04923211 135.125 387.375 C134.465 389.025 133.805 390.675 133.125 392.375 C134.341875 392.313125 135.55875 392.25125 136.8125 392.1875 C140.73962154 392.19443838 142.99086973 392.86769579 146.125 395.375 C149.12857596 398.48584653 149.76516256 401.10256391 150.125 405.375 C149.26171875 408.6171875 149.26171875 408.6171875 147.8125 412.25 C147.54904785 412.91692871 147.2855957 413.58385742 147.01416016 414.27099609 C146.06767158 416.64598624 145.09612429 419.0099794 144.125 421.375 C143.29556706 423.43228931 142.46614033 425.48958112 141.63671875 427.546875 C140.75953417 429.69861933 139.88063093 431.84966384 139 434 C138.58065186 435.03108887 138.16130371 436.06217773 137.72924805 437.12451172 C131.9027641 451.14624947 131.9027641 451.14624947 126.125 454.375 C120.69075202 456.14429004 116.10837407 454.85721294 111.125 452.375 C107.64999303 448.89999303 106.19813935 446.20348374 106 441.25 C106.13979437 436.91637462 106.57917319 432.6733861 107.125 428.375 C106.135 428.375 105.145 428.375 104.125 428.375 C101.81630531 426.45583581 99.67047979 424.51505322 97.515625 422.43359375 C96.8569342 421.80730576 96.19824341 421.18101776 95.51959229 420.53575134 C93.37837181 418.49199187 91.25015307 416.43545525 89.125 414.375 C88.42528076 413.6983429 87.72556152 413.02168579 87.00463867 412.32452393 C82.66397458 408.11795616 78.35712539 403.87884277 74.07128906 399.61645508 C72.60437556 398.16111904 71.13299124 396.71027587 69.65722656 395.26391602 C51.84094882 377.79963758 38.88325339 358.82550305 28.125 336.375 C22.78650131 342.33001267 20.87724432 347.60912911 19.52441406 355.40893555 C19.32442936 356.45876208 19.12444466 357.50858862 18.91839981 358.59022808 C18.30165768 361.84861271 17.71319356 365.1113589 17.125 368.375 C16.75579007 370.32842028 16.3840914 372.28137217 16.00964355 374.23379517 C15.08407079 379.08053162 14.18371814 383.93150594 13.29338837 388.78483009 C12.71560992 391.93432033 12.13433209 395.0831492 11.55230713 398.2318573 C10.32349 404.88317806 9.09910488 411.53531068 7.875 418.1875 C6.44048444 425.97984422 5.00411962 433.77184245 3.56446075 441.56323814 C2.99262242 444.6623341 2.42344732 447.76191131 1.85443115 450.86152649 C1.50691388 452.74470166 1.15928428 454.62785612 0.81152344 456.51098633 C0.65466064 457.36951706 0.49779785 458.22804779 0.33618164 459.1125946 C-0.25080839 462.27973428 -0.85498748 465.31496244 -1.875 468.375 C-5.46891114 467.04011872 -8.62990696 465.41477277 -11.875 463.375 C-13.40997002 464.90997002 -13.10183026 466.49417808 -13.25 468.625 C-13.65733997 472.56679755 -14.30474727 475.23357999 -16.875 478.375 C-21.4232773 481.11589389 -25.70771741 481.12104974 -30.875 480.375 C-35.11171751 478.90608074 -39.02215605 476.93384861 -43 474.875 C-44.63509521 474.0550354 -44.63509521 474.0550354 -46.30322266 473.21850586 C-48.48519961 472.12300584 -50.66352533 471.02019906 -52.83789062 469.90966797 C-55.52463505 468.55204133 -58.22633246 467.24732706 -60.953125 465.97265625 C-61.69030762 465.62332031 -62.42749023 465.27398437 -63.18701172 464.9140625 C-64.51780995 464.28409884 -65.8525483 463.66236102 -67.19189453 463.05078125 C-71.12570955 461.1397919 -73.14338018 459.4114239 -74.875 455.375 C-75.7469126 450.79238961 -75.95940755 446.27188415 -73.59765625 442.140625 C-71.54195858 439.70796565 -69.73608021 437.80554011 -66.875 436.375 C-58.67779698 435.80092878 -50.90553939 436.82966815 -42.875 438.375 C-42.8242482 437.58325882 -42.7734964 436.79151764 -42.72120667 435.9757843 C-42.17599703 428.15308423 -41.25581624 420.472865 -40.02734375 412.73046875 C-39.85119034 411.59466873 -39.67503693 410.45886871 -39.49354553 409.28865051 C-38.93783951 405.71252498 -38.37529874 402.13751541 -37.8125 398.5625 C-37.43118514 396.11660743 -37.05032176 393.67064442 -36.66992188 391.22460938 C-35.74349092 385.27391664 -34.81146823 379.32412096 -33.875 373.375 C-34.64183105 373.87104736 -35.40866211 374.36709473 -36.19873047 374.87817383 C-38.875 376.375 -38.875 376.375 -41.6953125 376.32421875 C-45.74190967 375.1162051 -49.10760421 373.2976143 -52.75 371.1875 C-53.52537109 370.74752686 -54.30074219 370.30755371 -55.09960938 369.85424805 C-57.69859189 368.3733078 -60.28781498 366.87644942 -62.875 365.375 C-64.24253418 364.58222656 -64.24253418 364.58222656 -65.63769531 363.7734375 C-70.60852587 360.88703847 -75.57159049 357.98757616 -80.53125 355.08203125 C-86.96260284 351.31745839 -93.41718581 347.59394009 -99.875 343.875 C-102.03132047 342.63033042 -104.18757048 341.38553874 -106.34375 340.140625 C-110.81759068 337.55831768 -115.29795967 334.98773551 -119.78125 332.421875 C-121.97931874 331.15651413 -124.17724092 329.89089863 -126.375 328.625 C-127.40238281 328.04041016 -128.42976562 327.45582031 -129.48828125 326.85351562 C-130.90173828 326.03657227 -130.90173828 326.03657227 -132.34375 325.203125 C-133.17326172 324.7277832 -134.00277344 324.25244141 -134.85742188 323.76269531 C-136.875 322.375 -136.875 322.375 -138.875 319.375 C-140.1239452 311.33434552 -136.42024216 306.20022196 -132.3125 299.5 C-131.29060857 297.78490647 -130.2687468 296.06979446 -129.24864197 294.3536377 C-128.18406043 292.56705424 -127.11227594 290.78492694 -126.04003906 289.00292969 C-123.87648176 285.39375482 -121.77040962 281.75330814 -119.6796875 278.1015625 C-119.34254227 277.51299469 -119.00539703 276.92442688 -118.65803528 276.31802368 C-117.66734957 274.58730606 -116.67741828 272.85615668 -115.6875 271.125 C-106.06877394 254.32178623 -106.06877394 254.32178623 -103.0625 251.9375 C-96.73074035 250.30933323 -91.81147179 253.2388434 -86.50585938 256.37304688 C-85.65830078 256.88931641 -84.81074219 257.40558594 -83.9375 257.9375 C-83.06287109 258.45763672 -82.18824219 258.97777344 -81.28710938 259.51367188 C-79.14332852 260.79056867 -77.0065009 262.07774478 -74.875 263.375 C-72.55391917 260.33849819 -70.61504603 257.23859427 -68.6875 253.9375 C-65.48619442 248.92792558 -62.60424346 245.33990299 -56.875 243.375 C-50.41123941 242.22449245 -45.45225936 243.53526661 -39.6875 246.5 C-37.91025867 247.51991636 -37.91025867 247.51991636 -35.875 247.375 C-35.50375 246.35176636 -35.50375 246.35176636 -35.125 245.30786133 C-33.64887841 241.84445339 -31.80592207 238.67110908 -29.875 235.44921875 C-29.48258621 234.78917847 -29.09017242 234.12913818 -28.68586731 233.44909668 C-27.84963781 232.04394485 -27.01181153 230.63974225 -26.17251587 229.23641968 C-24.86651109 227.04827727 -23.57048823 224.85446804 -22.27612305 222.65942383 C-15.13405628 210.58966715 -15.13405628 210.58966715 -11.39453125 205.375 C-5.34191935 196.92656256 -4.01326605 190.65841568 -4.6484375 180.3671875 C-4.97057152 175.11120731 -4.55492919 170.04044136 -4 164.8125 C-3.91129639 163.94206055 -3.82259277 163.07162109 -3.73120117 162.17480469 C-3.28015186 157.86433161 -2.78112684 153.56053277 -2.26171875 149.2578125 C-2.16552246 148.44513916 -2.06932617 147.63246582 -1.97021484 146.79516602 C-1.7877784 145.27375947 -1.59728251 143.7532875 -1.39697266 142.23413086 C-0.88469098 138.02539506 -1.14665074 134.52659079 -1.875 130.375 C0.25543478 125.80978261 0.25543478 125.80978261 3.125 124.375 C5.13457058 124.40689795 7.14471076 124.44134162 9.15234375 124.53515625 C11.44949615 124.50934422 11.44949615 124.50934422 14.125 122.375 C13.62300802 118.64591669 13.08292977 115.01352314 12.125 111.375 C11.36316406 111.34921875 10.60132813 111.3234375 9.81640625 111.296875 C-0.18605592 110.74742639 -7.64399107 108.43784593 -14.875 101.375 C-20.93889671 93.45824596 -22.01608283 85.11863723 -21.97265625 75.34765625 C-21.96782227 73.41889648 -21.96782227 73.41889648 -21.96289062 71.45117188 C-21.95453802 70.11328055 -21.94607311 68.77538993 -21.9375 67.4375 C-21.93247659 66.07226726 -21.92791517 64.70703274 -21.92382812 63.34179688 C-21.91208851 60.01948543 -21.89566679 56.69726592 -21.875 53.375 C-22.65222412 53.07247314 -23.42944824 52.76994629 -24.23022461 52.45825195 C-30.32698009 49.96113167 -36.4061078 46.06398321 -39.875 40.375 C-42.66606772 33.59669268 -42.11268057 27.16539676 -39.875 20.3125 C-32.81807822 9.94764613 -23.20954291 3.6149067 -11.0012207 0.7565918 C-7.3349543 0.09860875 -3.71810535 -0.0063673 0 0 Z M-1.875 237.375 C-11.205455 246.73740858 -11.205455 246.73740858 -18.875 257.375 C-18.10403852 260.62706205 -18.10403852 260.62706205 -15 262.5625 C-11.18603349 265.55132952 -10.26644448 268.81415421 -8.875 273.375 C-5.22286887 269.72286887 -4.56907868 264.18817144 -3.1875 259.3125 C-2.85427734 258.20455078 -2.52105469 257.09660156 -2.17773438 255.95507812 C-0.27452351 249.26416426 0.43747378 244.22741833 -0.875 237.375 C-1.205 237.375 -1.535 237.375 -1.875 237.375 Z M-51.875 260.375 C-53.0749038 262.13745222 -54.25959517 263.91026981 -55.4375 265.6875 C-56.09878906 266.67363281 -56.76007813 267.65976562 -57.44140625 268.67578125 C-57.91449219 269.56652344 -58.38757813 270.45726562 -58.875 271.375 C-57.59501423 275.21495732 -56.3343503 275.53889209 -52.8515625 277.4765625 C-51.830625 278.04890625 -50.8096875 278.62125 -49.7578125 279.2109375 C-48.68273437 279.80132812 -47.60765625 280.39171875 -46.5 281 C-44.89898437 281.8971875 -44.89898437 281.8971875 -43.265625 282.8125 C-37.73489647 285.9584337 -37.73489647 285.9584337 -31.875 288.375 C-30.84192229 286.61128182 -29.82387951 284.83874967 -28.8125 283.0625 C-28.24402344 282.07636719 -27.67554688 281.09023438 -27.08984375 280.07421875 C-25.50268396 277.362406 -25.50268396 277.362406 -26.875 274.375 C-27.52984375 274.30023438 -28.1846875 274.22546875 -28.859375 274.1484375 C-33.01050651 273.08376905 -36.41608156 271.10794645 -40.125 269 C-40.8571875 268.60039062 -41.589375 268.20078125 -42.34375 267.7890625 C-43.03984375 267.3971875 -43.7359375 267.0053125 -44.453125 266.6015625 C-45.08637695 266.24658691 -45.71962891 265.89161133 -46.37207031 265.52587891 C-47.875 264.375 -47.875 264.375 -48.875 261.375 C-49.865 261.045 -50.855 260.715 -51.875 260.375 Z M-13.875 289.375 C-12.875 291.375 -12.875 291.375 -12.875 291.375 Z M-14.875 291.375 C-15.865 293.355 -16.855 295.335 -17.875 297.375 C-16.885 297.705 -15.895 298.035 -14.875 298.375 C-14.545 296.065 -14.215 293.755 -13.875 291.375 C-14.205 291.375 -14.535 291.375 -14.875 291.375 Z " fill="#E5E4DF" transform="translate(257.875,15.625)"/>
<path d="M0 0 C0.9964415 1.95807282 1.96103698 3.90877853 2.82421875 5.9296875 C5.852004 12.75247959 9.97282459 16.37829889 16.5 19.875 C30.89919115 24.50826575 46.97408567 19.38057333 59.92578125 12.953125 C62 12 62 12 64 12 C63.85715908 14.02104705 63.71057617 16.04182977 63.5625 18.0625 C63.44068359 19.75052734 63.44068359 19.75052734 63.31640625 21.47265625 C63 25 63 25 62.33544922 28.04785156 C61.88869385 33.31137114 63.02068616 37.67845269 64.31640625 42.76171875 C64.69671242 44.30228691 64.69671242 44.30228691 65.08470154 45.87397766 C65.62403665 48.04315749 66.16992208 50.21071786 66.72192383 52.37670898 C67.55416951 55.65468856 68.35752495 58.93879581 69.15820312 62.22460938 C75.59794826 88.14803101 87.36308615 101.85257374 108.1171875 118.5859375 C111.9180564 121.76877894 115.5181481 125.14332704 119.13500977 128.53173828 C124.22632072 133.27384781 129.54909551 137.67423211 135 142 C134.34 143.65 133.68 145.3 133 147 C134.216875 146.938125 135.43375 146.87625 136.6875 146.8125 C140.61462154 146.81943838 142.86586973 147.49269579 146 150 C149.00357596 153.11084653 149.64016256 155.72756391 150 160 C149.13671875 163.2421875 149.13671875 163.2421875 147.6875 166.875 C147.42404785 167.54192871 147.1605957 168.20885742 146.88916016 168.89599609 C145.94267158 171.27098624 144.97112429 173.6349794 144 176 C143.17056706 178.05728931 142.34114033 180.11458112 141.51171875 182.171875 C140.63453417 184.32361933 139.75563093 186.47466384 138.875 188.625 C138.45565186 189.65608887 138.03630371 190.68717773 137.60424805 191.74951172 C131.7777641 205.77124947 131.7777641 205.77124947 126 209 C120.56575202 210.76929004 115.98337407 209.48221294 111 207 C107.52499303 203.52499303 106.07313935 200.82848374 105.875 195.875 C106.01479437 191.54137462 106.45417319 187.2983861 107 183 C106.01 183 105.02 183 104 183 C101.69130531 181.08083581 99.54547979 179.14005322 97.390625 177.05859375 C96.7319342 176.43230576 96.07324341 175.80601776 95.39459229 175.16075134 C93.25337181 173.11699187 91.12515307 171.06045525 89 169 C88.30028076 168.3233429 87.60056152 167.64668579 86.87963867 166.94952393 C82.53897458 162.74295616 78.23212539 158.50384277 73.94628906 154.24145508 C72.47937556 152.78611904 71.00799124 151.33527587 69.53222656 149.88891602 C51.71594882 132.42463758 38.75825339 113.45050305 28 91 C22.66150131 96.95501267 20.75224432 102.23412911 19.39941406 110.03393555 C19.19942936 111.08376208 18.99944466 112.13358862 18.79339981 113.21522808 C18.17665768 116.47361271 17.58819356 119.7363589 17 123 C16.63079007 124.95342028 16.2590914 126.90637217 15.88464355 128.85879517 C14.95907079 133.70553162 14.05871814 138.55650594 13.16838837 143.40983009 C12.59060992 146.55932033 12.00933209 149.7081492 11.42730713 152.8568573 C10.19849 159.50817806 8.97410488 166.16031068 7.75 172.8125 C6.31548444 180.60484422 4.87911962 188.39684245 3.43946075 196.18823814 C2.86762242 199.2873341 2.29844732 202.38691131 1.72943115 205.48652649 C1.38191388 207.36970166 1.03428428 209.25285612 0.68652344 211.13598633 C0.45122925 212.42378242 0.45122925 212.42378242 0.21118164 213.7375946 C-0.37580839 216.90473428 -0.97998748 219.93996244 -2 223 C-5.59391114 221.66511872 -8.75490696 220.03977277 -12 218 C-13.53497002 219.53497002 -13.22683026 221.11917808 -13.375 223.25 C-13.78233997 227.19179755 -14.42974727 229.85857999 -17 233 C-21.5482773 235.74089389 -25.83271741 235.74604974 -31 235 C-35.23671751 233.53108074 -39.14715605 231.55884861 -43.125 229.5 C-44.21506348 228.95335693 -45.30512695 228.40671387 -46.42822266 227.84350586 C-48.61019961 226.74800584 -50.78852533 225.64519906 -52.96289062 224.53466797 C-55.64963505 223.17704133 -58.35133246 221.87232706 -61.078125 220.59765625 C-62.18389893 220.07365234 -62.18389893 220.07365234 -63.31201172 219.5390625 C-64.64280995 218.90909884 -65.9775483 218.28736102 -67.31689453 217.67578125 C-71.25070955 215.7647919 -73.26838018 214.0364239 -75 210 C-75.8719126 205.41738961 -76.08440755 200.89688415 -73.72265625 196.765625 C-71.66695858 194.33296565 -69.86108021 192.43054011 -67 191 C-58.80279698 190.42592878 -51.03053939 191.45466815 -43 193 C-42.97276855 192.36030273 -42.94553711 191.72060547 -42.91748047 191.06152344 C-42.25172596 179.84940146 -40.42057756 168.80861615 -38.67138672 157.72412109 C-38.12434918 154.24586187 -37.59108038 150.76566913 -37.05859375 147.28515625 C-36.70916505 145.04934902 -36.35893234 142.81366727 -36.0078125 140.578125 C-35.85144318 139.54979553 -35.69507385 138.52146606 -35.53396606 137.4619751 C-34.00837025 127.93702582 -31.52831783 120.16634413 -26.1875 112.125 C-25.28286972 110.72021982 -24.38052198 109.31396712 -23.48046875 107.90625 C-23.04911621 107.23335938 -22.61776367 106.56046875 -22.17333984 105.8671875 C-20.17112086 102.68096803 -18.40325431 99.38297946 -16.63671875 96.0625 C-14.4074447 91.8912569 -12.10969676 87.75912783 -9.8125 83.625 C-9.38388672 82.8510791 -8.95527344 82.0771582 -8.51367188 81.27978516 C-6.80645834 78.20505875 -5.10202687 75.16238714 -3.23046875 72.18359375 C-1.4028732 68.94033688 -1.46995026 66.64409195 -2 63 C-3.99167569 60.70340573 -3.99167569 60.70340573 -7 59 C-7.69738281 58.55398438 -8.39476562 58.10796875 -9.11328125 57.6484375 C-11.062358 56.4090601 -13.02424893 55.19623638 -15 54 C-14.42026812 48.06111875 -13.17689872 42.73961186 -11.375 37.0625 C-8.48968984 27.74492418 -5.84221067 18.37255759 -3.27294922 8.96313477 C-2.99080566 7.94018311 -2.70866211 6.91723145 -2.41796875 5.86328125 C-2.16813232 4.94844971 -1.9182959 4.03361816 -1.66088867 3.09106445 C-1 1 -1 1 0 0 Z " fill="#5B3719" transform="translate(258,261)"/>
<path d="M0 0 C1.6817915 1.02850197 3.3560179 2.06945179 5.0234375 3.12109375 C5.90789551 3.66467529 6.79235352 4.20825684 7.70361328 4.76831055 C11.51811348 7.11700545 15.30939353 9.50221655 19.1015625 11.88671875 C25.55865656 15.92637858 32.09010062 19.44280933 38.93359375 22.78515625 C43.45759818 25.10071207 47.72795189 27.73652569 52.02734375 30.44140625 C55.7484234 32.7783995 59.5041003 35.05063782 63.2734375 37.30859375 C63.87986084 37.6732373 64.48628418 38.03788086 65.11108398 38.41357422 C68.06949902 40.18724327 71.04094512 41.92998325 74.04296875 43.62890625 C76.83577929 45.23501615 79.53469548 46.89318315 82.2109375 48.68359375 C82.95988281 49.18117188 83.70882812 49.67875 84.48046875 50.19140625 C86.3984375 51.55859375 86.3984375 51.55859375 88.3984375 53.55859375 C88.95074256 59.02831551 87.94964075 62.19151635 85.1796875 66.875 C84.84352417 67.4533812 84.50736084 68.03176239 84.16101074 68.62767029 C83.08749318 70.46747147 81.99374894 72.2942015 80.8984375 74.12109375 C80.19390359 75.31883383 79.49076759 76.51739732 78.7890625 77.71679688 C77.38139671 80.11948998 75.96610033 82.51744064 74.5456543 84.91259766 C71.69660717 89.7307351 68.9361047 94.59873196 66.1730957 99.46655273 C64.05267001 103.16103498 61.85318148 106.8025411 59.6328125 110.4375 C58.25115331 112.7301598 58.25115331 112.7301598 56.8359375 115.99609375 C55.07118812 119.14195135 53.74702443 120.2347338 50.3984375 121.55859375 C44.97808317 121.21042501 41.11391693 119.03045228 36.5234375 116.37109375 C35.74806641 115.93112061 34.97269531 115.49114746 34.17382812 115.0378418 C31.57484561 113.55690155 28.98562252 112.06004317 26.3984375 110.55859375 C25.48674805 110.03007812 24.57505859 109.5015625 23.63574219 108.95703125 C18.66491163 106.07063222 13.70184701 103.17116991 8.7421875 100.265625 C2.31083466 96.50105214 -4.14374831 92.77753384 -10.6015625 89.05859375 C-12.75788297 87.81392417 -14.91413298 86.56913249 -17.0703125 85.32421875 C-21.54415318 82.74191143 -26.02452217 80.17132926 -30.5078125 77.60546875 C-32.70588124 76.34010788 -34.90380342 75.07449238 -37.1015625 73.80859375 C-38.12894531 73.22400391 -39.15632812 72.63941406 -40.21484375 72.03710938 C-41.15714844 71.49248047 -42.09945312 70.94785156 -43.0703125 70.38671875 C-43.89982422 69.91137695 -44.72933594 69.43603516 -45.58398438 68.94628906 C-47.6015625 67.55859375 -47.6015625 67.55859375 -49.6015625 64.55859375 C-50.8505077 56.51793927 -47.14680466 51.38381571 -43.0390625 44.68359375 C-42.01717107 42.96850022 -40.9953093 41.25338821 -39.97520447 39.53723145 C-38.91062293 37.75064799 -37.83883844 35.96852069 -36.76660156 34.18652344 C-34.60304426 30.57734857 -32.49697212 26.93690189 -30.40625 23.28515625 C-30.06910477 22.69658844 -29.73195953 22.10802063 -29.38459778 21.50161743 C-28.39391207 19.77089981 -27.40398078 18.03975043 -26.4140625 16.30859375 C-16.79533644 -0.49462002 -16.79533644 -0.49462002 -13.7890625 -2.87890625 C-8.59185561 -4.21533088 -4.47376517 -2.57166511 0 0 Z " fill="#D68D0C" transform="translate(168.6015625,270.44140625)"/>
<path d="M0 0 C5.36438129 6.47425329 7.35955924 10.82218566 8.1796875 19.16015625 C8.74433137 22.18447148 8.74433137 22.18447148 11.3984375 23.796875 C15.17546779 26.99544119 15.59826996 30.50099774 16.75 35.1875 C21.12800524 51.08649559 28.13463072 63.56894146 40 75 C40.70511719 75.72445312 41.41023438 76.44890625 42.13671875 77.1953125 C48.96228922 83.82586667 58.65653913 90.15306037 67.87109375 92.8359375 C70 94 70 94 71.14453125 97.046875 C71.36496094 98.26890625 71.58539063 99.4909375 71.8125 100.75 C72.04582031 101.96171875 72.27914062 103.1734375 72.51953125 104.421875 C73.3631065 110.70411021 73.3631065 110.70411021 73 114 C64.96686511 124.12963779 48.10815233 128.80970415 36 131 C24.64569528 132.09519868 16.73749356 130.83273318 7.6875 123.9375 C3.14604818 119.73913996 1.62405192 114.83803929 0 109 C-0.22429687 108.25363281 -0.44859375 107.50726563 -0.6796875 106.73828125 C-1.145261 105.16617346 -1.57753683 103.58423687 -2 102 C-12.25193993 111.44008942 -12.25193993 111.44008942 -18 123 C-16.93198872 123.91878231 -15.81932837 124.78608787 -14.6875 125.625 C-10.79124887 128.92610076 -8.54771315 131.82715359 -8 137 C-8.85574527 145.38161465 -12.32166058 153.05416459 -17 160 C-17.66 160.33 -18.32 160.66 -19 161 C-21.45038293 159.75717988 -23.773325 158.47117661 -26.125 157.0625 C-27.11306641 156.48338867 -27.11306641 156.48338867 -28.12109375 155.89257812 C-29.751613 154.93553422 -31.37636184 153.96867185 -33 153 C-32.33291016 151.73542969 -32.33291016 151.73542969 -31.65234375 150.4453125 C-31.08644531 149.34960938 -30.52054688 148.25390625 -29.9375 147.125 C-29.36902344 146.03445313 -28.80054688 144.94390625 -28.21484375 143.8203125 C-27.81394531 142.88960937 -27.41304687 141.95890625 -27 141 C-27.33 140.34 -27.66 139.68 -28 139 C-28.84820312 138.72027344 -29.69640625 138.44054687 -30.5703125 138.15234375 C-34.69736446 136.7656919 -38.15548367 134.79348896 -41.875 132.5625 C-42.56335938 132.16740234 -43.25171875 131.77230469 -43.9609375 131.36523438 C-45.69579513 130.33085994 -47.35598328 129.17340125 -49 128 C-49 127.01 -49 126.02 -49 125 C-49.99 125 -50.98 125 -52 125 C-53.93339429 127.68622162 -53.93339429 127.68622162 -55.6875 131 C-56.31011719 132.11375 -56.93273437 133.2275 -57.57421875 134.375 C-58.04472656 135.24125 -58.51523438 136.1075 -59 137 C-62.69876091 135.62712658 -65.9514476 133.93644547 -69.3125 131.875 C-70.19550781 131.33617187 -71.07851562 130.79734375 -71.98828125 130.2421875 C-72.65214844 129.83226562 -73.31601563 129.42234375 -74 129 C-71.67574438 121.33898268 -67.87358338 113.55921234 -61.1875 108.8125 C-56.55935929 106.36441012 -52.11058886 106.11017482 -47 107 C-44.4927782 107.88916694 -42.17704637 108.90894758 -39.8125 110.125 C-38.03525867 111.14491636 -38.03525867 111.14491636 -36 111 C-35.7525 110.31784424 -35.505 109.63568848 -35.25 108.93286133 C-33.77387841 105.46945339 -31.93092207 102.29610908 -30 99.07421875 C-29.60758621 98.41417847 -29.21517242 97.75413818 -28.81086731 97.07409668 C-27.97463781 95.66894485 -27.13681153 94.26474225 -26.29751587 92.86141968 C-24.99151109 90.67327727 -23.69548823 88.47946804 -22.40112305 86.28442383 C-15.25905628 74.21466715 -15.25905628 74.21466715 -11.51953125 69 C-4.83977505 59.67617363 -4.23516719 52.73915647 -4.92041016 41.52246094 C-5.05900952 37.12979646 -4.63241382 32.80406861 -4.1875 28.4375 C-4.10064941 27.57141113 -4.01379883 26.70532227 -3.92431641 25.81298828 C-2.995219 17.14627692 -1.56976708 8.57092827 0 0 Z " fill="#E5E3DE" transform="translate(258,152)"/>
<path d="M0 0 C1.19387329 -0.00193359 1.19387329 -0.00193359 2.41186523 -0.00390625 C7.80336655 0.09306914 11.59870394 1.08060197 16.4375 3.5 C20.22539209 4.73326719 23.7373414 4.50777488 27.6875 4.375 C37.66998112 4.09662569 43.90047269 6.49477661 51.27734375 13.40234375 C60.22464385 22.95495802 64.50346225 35.17534344 64.27734375 48.21484375 C63.22695114 63.10887226 56.21363067 73.55418446 47.65576172 85.25195312 C46.20402849 87.26539367 44.7978018 89.30138673 43.41015625 91.359375 C43.00047607 91.96612061 42.5907959 92.57286621 42.16870117 93.19799805 C41.06558518 94.83988261 39.96626516 96.48431569 38.8671875 98.12890625 C38.00480469 99.24072266 38.00480469 99.24072266 37.125 100.375 C36.465 100.375 35.805 100.375 35.125 100.375 C34.02630454 97.07891363 33.85239327 94.4070566 33.75 90.9375 C33.70101562 89.80441406 33.65203125 88.67132813 33.6015625 87.50390625 C34.28246994 83.4337058 35.85699745 82.71144558 39.125 80.375 C40.19716639 76.87221894 40.19716639 76.87221894 40.125 73.375 C39.465 72.385 38.805 71.395 38.125 70.375 C34.40859861 70.10471626 31.667799 70.194067 28.125 71.375 C25.82866176 67.93049263 25.58483515 65.43687717 25.125 61.375 C24.44695312 61.32601562 23.76890625 61.27703125 23.0703125 61.2265625 C3.08772889 59.6213134 3.08772889 59.6213134 -4.0625 52.0625 C-8.81487155 45.01588012 -9.28386358 39.74913182 -8.875 31.375 C-13.63096739 35.75549628 -15.73190144 38.61319784 -16.0703125 45.14453125 C-16.05716327 46.49232715 -16.0335249 47.84005695 -16 49.1875 C-15.99097656 49.88037109 -15.98195312 50.57324219 -15.97265625 51.28710938 C-15.94926157 52.98322395 -15.91339641 54.67915871 -15.875 56.375 C-25.04765471 52.78428107 -34.03951207 49.0003823 -39.75 40.625 C-42.05524941 33.96539058 -42.81829706 27.34358261 -40.1953125 20.66796875 C-34.28385879 10.40162755 -24.12491598 4.52917585 -13.0625 1.2421875 C-8.70192502 0.21848126 -4.46785755 -0.00765126 0 0 Z " fill="#5B3719" transform="translate(257.875,15.625)"/>
<path d="M0 0 C1.45903258 0.30921884 2.91720722 0.62248799 4.375 0.9375 C5.18710937 1.11152344 5.99921875 1.28554687 6.8359375 1.46484375 C9 2 9 2 11 3 C13.19655016 7.97113984 12.83978059 11.28256604 12 16.625 C11.44850714 22.66577059 12.60857834 26.11163824 16.375 30.75 C17.75577794 32.36996974 19.16492593 33.94928339 20.61572266 35.50683594 C21.90414005 36.89659974 23.13269766 38.3412042 24.35546875 39.7890625 C30.1817508 46.61560891 36.46866564 52.11107197 44.375 56.375 C47.72904064 58.35936269 48.76968191 60.12729487 50 63.8125 C50.34204247 65.20622478 50.67683191 66.6017782 51 68 C52.24136719 67.71125 53.48273438 67.4225 54.76171875 67.125 C56.40358121 66.74971715 58.04551192 66.37473282 59.6875 66 C60.50412109 65.80921875 61.32074219 65.6184375 62.16210938 65.421875 C66.17239326 64.51266084 69.85717252 63.72999902 74 64 C74.495 67.96 74.495 67.96 75 72 C78.03822421 72.66791228 81.07792997 73.31199939 84.125 73.9375 C85.06190674 74.13512939 85.99881348 74.33275879 86.96411133 74.53637695 C92.04836403 75.52788016 96.75674805 76.10697437 101.94140625 75.890625 C116.04450668 75.32930167 116.04450668 75.32930167 119.93115234 78.64990234 C124.03275766 83.74670615 128 90.32433608 128 97 C125.18394174 98.55451103 122.34510414 100.06190824 119.5 101.5625 C118.70851563 102.00013672 117.91703125 102.43777344 117.1015625 102.88867188 C111.76672999 105.66540847 107.92305747 106.60358959 102 105 C101.17564453 104.78142334 100.35128906 104.56284668 99.50195312 104.33764648 C96.8187179 103.58280175 94.15989319 102.77064969 91.5 101.9375 C90.5821875 101.65583984 89.664375 101.37417969 88.71875 101.08398438 C86.47727797 100.3951987 84.23784969 99.70044695 82 99 C82.79909586 104.85653151 83.66502193 110.66416772 84.98828125 116.42578125 C87.56927388 127.67389839 88.74161184 138.46296847 89 150 C85.04262161 151.00380545 81.08394668 152.00239936 77.125 153 C75.99707031 153.28617188 74.86914062 153.57234375 73.70703125 153.8671875 C72.63066406 154.13789063 71.55429687 154.40859375 70.4453125 154.6875 C68.95281982 155.06455078 68.95281982 155.06455078 67.43017578 155.44921875 C65 156 65 156 63 156 C62.87882812 154.83082031 62.75765625 153.66164063 62.6328125 152.45703125 C62.46391599 150.90881329 62.29462432 149.36063839 62.125 147.8125 C62.04636719 147.04357422 61.96773438 146.27464844 61.88671875 145.48242188 C61.42038219 141.30332887 60.68200628 137.88874102 59 134 C59.3348283 130.48430284 60.00358851 128.99461723 62 126 C61.49812505 117.94610193 59.81703811 110.01735117 58.37304688 102.08789062 C58.19708984 101.10369141 58.02113281 100.11949219 57.83984375 99.10546875 C57.67863037 98.22012451 57.51741699 97.33478027 57.35131836 96.42260742 C57 94 57 94 57 90 C55.783125 89.67 54.56625 89.34 53.3125 89 C42.25401973 85.27906482 33.25915926 78.02527157 25 70 C24.36449219 69.42636719 23.72898437 68.85273438 23.07421875 68.26171875 C11.10076493 57.13782263 4.58390976 40.64271203 1 25 C1 24.01 1 23.02 1 22 C0.071875 21.566875 0.071875 21.566875 -0.875 21.125 C-3 20 -3 20 -5 18 C-5.66743654 13.30686728 -6.13946604 8.15982412 -3.87890625 3.875 C-2.5 2.25 -2.5 2.25 0 0 Z " fill="#F5BA92" transform="translate(271,156)"/>
<path d="M0 0 C0.66 0 1.32 0 2 0 C2.01417969 0.67804687 2.02835938 1.35609375 2.04296875 2.0546875 C2.47307158 10.44750479 4.43825789 17.43825789 10.5 23.5 C15.88143376 26.72886026 21.19610197 27.67881688 27.3125 28.625 C28.14845703 28.7590625 28.98441406 28.893125 29.84570312 29.03125 C31.89631318 29.35934761 33.94805121 29.68038181 36 30 C36.99 32.97 37.98 35.94 39 39 C39.99 38.67 40.98 38.34 42 38 C48.28205128 37.43910256 48.28205128 37.43910256 51 39.5625 C52.46521088 43.13395151 52.05176954 45.31880659 51 49 C49.74896484 49.91652344 49.74896484 49.91652344 48.47265625 50.8515625 C45.76808742 52.77541711 45.76808742 52.77541711 45.37109375 55.7421875 C45.55523611 64.42937425 47.23659815 71.77147753 50 80 C48.90300781 80.47050781 47.80601562 80.94101563 46.67578125 81.42578125 C45.22127461 82.05450348 43.76685194 82.68342 42.3125 83.3125 C41.2306543 83.7755957 41.2306543 83.7755957 40.12695312 84.24804688 C37.0023471 85.60346958 34.08058087 86.95076231 31.16796875 88.73046875 C29 90 29 90 26 90 C25.01 86.7 24.02 83.4 23 80 C22.23816406 79.97421875 21.47632813 79.9484375 20.69140625 79.921875 C10.68894408 79.37242639 3.23100893 77.06284593 -4 70 C-10.06389671 62.08324596 -11.14108283 53.74363723 -11.09765625 43.97265625 C-11.09443359 42.68681641 -11.09121094 41.40097656 -11.08789062 40.07617188 C-11.07953802 38.73828055 -11.07107311 37.40038993 -11.0625 36.0625 C-11.05747659 34.69726726 -11.05291517 33.33203274 -11.04882812 31.96679688 C-11.03708851 28.64448543 -11.02066679 25.32226592 -11 22 C-9.02 22.99 -7.04 23.98 -5 25 C-5.33 24.01 -5.66 23.02 -6 22 C-6.70530641 14.19537988 -6.19662124 8.66522197 -2 2 C-1.34 1.34 -0.68 0.68 0 0 Z " fill="#F5BA91" transform="translate(247,47)"/>
<path d="M0 0 C0.33 0 0.66 0 1 0 C1.03867188 0.97839844 1.03867188 0.97839844 1.078125 1.9765625 C1.55362383 9.30356724 3.42403367 13.9816303 9 19 C8.67 19.598125 8.34 20.19625 8 20.8125 C6.79212012 23.05386471 6.79212012 23.05386471 7 26 C10.96 27.98 14.92 29.96 19 32 C19.99 30.35 20.98 28.7 22 27 C25.62347171 27.68900782 28.45180479 29.20748436 31.6640625 30.9921875 C33.33601685 31.91922485 33.33601685 31.91922485 35.04174805 32.86499023 C36.23636513 33.53463725 37.43077875 34.20464733 38.625 34.875 C39.22527008 35.20992462 39.82554016 35.54484924 40.44400024 35.8899231 C50.79229353 41.66461026 60.96745804 47.69195728 71 54 C70.5359375 55.1446875 70.5359375 55.1446875 70.0625 56.3125 C69.32106407 58.18789677 68.63771783 60.08684652 68 62 C68.639375 62.226875 69.27875 62.45375 69.9375 62.6875 C74.13320261 64.48565826 78.03900556 66.73904021 82 69 C82.4021875 67.7934375 82.4021875 67.7934375 82.8125 66.5625 C83.204375 65.716875 83.59625 64.87125 84 64 C87 63 87 63 89.125 63.5625 C94.69163708 64.40959695 100.10538799 62.63043774 105 60 C103.39666875 64.51532746 101.06501642 68.38253398 98.5625 72.4375 C96.35482682 76.02812017 94.21434036 79.56213327 92.359375 83.3515625 C90.68307804 86.6174514 89.4022402 87.65492829 86 89 C80.57964567 88.65183126 76.71547943 86.47185853 72.125 83.8125 C71.34962891 83.37252686 70.57425781 82.93255371 69.77539062 82.47924805 C67.17640811 80.9983078 64.58718502 79.50144942 62 78 C61.08831055 77.47148437 60.17662109 76.94296875 59.23730469 76.3984375 C54.26647413 73.51203847 49.30340951 70.61257616 44.34375 67.70703125 C37.91239716 63.94245839 31.45781419 60.21894009 25 56.5 C22.84367953 55.25533042 20.68742952 54.01053874 18.53125 52.765625 C14.05740932 50.18331768 9.57704033 47.61273551 5.09375 45.046875 C2.89568126 43.78151413 0.69775908 42.51589863 -1.5 41.25 C-2.52738281 40.66541016 -3.55476562 40.08082031 -4.61328125 39.47851562 C-5.55558594 38.93388672 -6.49789062 38.38925781 -7.46875 37.828125 C-8.29826172 37.3527832 -9.12777344 36.87744141 -9.98242188 36.38769531 C-12 35 -12 35 -14 32 C-15.34601153 23.79215349 -11.25647053 18.31469264 -7.0625 11.5 C-6.40314453 10.39140625 -5.74378906 9.2828125 -5.06445312 8.140625 C-1.62711316 2.41525053 -1.62711316 2.41525053 0 0 Z " fill="#B9790A" transform="translate(133,303)"/>
<path d="M0 0 C0.33 0 0.66 0 1 0 C3.77406573 8.159332 4.61708563 15.92432359 4.66577148 24.52514648 C4.6875371 26.5659791 4.76808022 28.59946357 4.84960938 30.63867188 C4.92750319 39.01430734 3.8779431 43.73486822 -1.89526367 49.90600586 C-2.58982666 50.59702393 -3.28438965 51.28804199 -4 52 C-5.00175294 53.16674393 -5.9930567 54.34262772 -6.96875 55.53125 C-8.67530624 57.53276657 -10.38368012 59.5327346 -12.09375 61.53125 C-14.20372077 63.74399229 -14.20372077 63.74399229 -14 66 C-12.93198872 66.91878231 -11.81932837 67.78608787 -10.6875 68.625 C-6.79124887 71.92610076 -4.54771315 74.82715359 -4 80 C-4.85574527 88.38161465 -8.32166058 96.05416459 -13 103 C-13.99 103.495 -13.99 103.495 -15 104 C-17.45038293 102.75717988 -19.773325 101.47117661 -22.125 100.0625 C-23.11306641 99.48338867 -23.11306641 99.48338867 -24.12109375 98.89257812 C-25.751613 97.93553422 -27.37636184 96.96867185 -29 96 C-28.33291016 94.73542969 -28.33291016 94.73542969 -27.65234375 93.4453125 C-27.08644531 92.34960938 -26.52054688 91.25390625 -25.9375 90.125 C-25.36902344 89.03445313 -24.80054688 87.94390625 -24.21484375 86.8203125 C-23.81394531 85.88960938 -23.41304687 84.95890625 -23 84 C-23.33 83.34 -23.66 82.68 -24 82 C-24.84820312 81.72027344 -25.69640625 81.44054687 -26.5703125 81.15234375 C-30.69736446 79.7656919 -34.15548367 77.79348896 -37.875 75.5625 C-38.90753906 74.96985352 -38.90753906 74.96985352 -39.9609375 74.36523438 C-41.69579513 73.33085994 -43.35598328 72.17340125 -45 71 C-45 70.01 -45 69.02 -45 68 C-45.99 68 -46.98 68 -48 68 C-49.93339429 70.68622162 -49.93339429 70.68622162 -51.6875 74 C-52.31011719 75.11375 -52.93273437 76.2275 -53.57421875 77.375 C-54.04472656 78.24125 -54.51523438 79.1075 -55 80 C-58.69876091 78.62712658 -61.9514476 76.93644547 -65.3125 74.875 C-66.19550781 74.33617187 -67.07851562 73.79734375 -67.98828125 73.2421875 C-68.65214844 72.83226562 -69.31601563 72.42234375 -70 72 C-67.67574438 64.33898268 -63.87358338 56.55921234 -57.1875 51.8125 C-52.55935929 49.36441012 -48.11058886 49.11017482 -43 50 C-40.4927782 50.88916694 -38.17704637 51.90894758 -35.8125 53.125 C-34.03525867 54.14491636 -34.03525867 54.14491636 -32 54 C-31.7525 53.31784424 -31.505 52.63568848 -31.25 51.93286133 C-29.7738642 48.46942006 -27.93070469 45.29625817 -26 42.07421875 C-25.60763153 41.41336273 -25.21526306 40.75250671 -24.81100464 40.07162476 C-23.54448396 37.94128469 -22.27252855 35.8142559 -21 33.6875 C-20.13288374 32.23304609 -19.26585906 30.77853759 -18.39892578 29.32397461 C-2.22159265 2.22159265 -2.22159265 2.22159265 0 0 Z " fill="#F5BB92" transform="translate(254,209)"/>
<path d="M0 0 C0.061875 0.61875 0.12375 1.2375 0.1875 1.875 C0.455625 2.57625 0.72375 3.2775 1 4 C2.65795446 4.68804741 4.32665088 5.35028857 6 6 C10.1792521 8.47629206 14.20203649 11.19061106 18.25 13.875 C19.37490422 14.60301261 20.49990333 15.33087861 21.625 16.05859375 C22.68203125 16.75855469 23.7390625 17.45851563 24.828125 18.1796875 C25.7965332 18.81632324 26.76494141 19.45295898 27.76269531 20.10888672 C30.15089389 22.12754519 30.71719961 22.94693416 31 26 C30.9626287 31.2226398 30.39245645 35.85366434 27 40 C22.4517227 42.74089389 18.16728259 42.74604974 13 42 C8.76328249 40.53108074 4.85284395 38.55884861 0.875 36.5 C-0.21506348 35.95335693 -1.30512695 35.40671387 -2.42822266 34.84350586 C-4.61019961 33.74800584 -6.78852533 32.64519906 -8.96289062 31.53466797 C-11.64963505 30.17704133 -14.35133246 28.87232706 -17.078125 27.59765625 C-17.81530762 27.24832031 -18.55249023 26.89898437 -19.31201172 26.5390625 C-20.64280995 25.90909884 -21.9775483 25.28736102 -23.31689453 24.67578125 C-27.25070955 22.7647919 -29.26838018 21.0364239 -31 17 C-31.8719126 12.41738961 -32.08440755 7.89688415 -29.72265625 3.765625 C-22.03994614 -5.32589503 -10.59954625 -2.33690783 0 0 Z " fill="#B87909" transform="translate(214,454)"/>
<path d="M0 0 C1.45903258 0.30921884 2.91720722 0.62248799 4.375 0.9375 C5.18710937 1.11152344 5.99921875 1.28554687 6.8359375 1.46484375 C9 2 9 2 11 3 C13.19655016 7.97113984 12.83978059 11.28256604 12 16.625 C11.44850714 22.66577059 12.60857834 26.11163824 16.375 30.75 C17.75577794 32.36996974 19.16492593 33.94928339 20.61572266 35.50683594 C21.90414005 36.89659974 23.13269766 38.3412042 24.35546875 39.7890625 C30.19029052 46.62561473 36.45068485 52.16050945 44.4375 56.3125 C47.07520712 57.86470936 47.85901957 58.6209323 48.94140625 61.53125 C49.44316761 64.02953031 49.80278171 66.4608145 50 69 C50.99 69 51.98 69 53 69 C53.67055285 71.93666226 54.33659053 74.87422359 55 77.8125 C55.19078125 78.64587891 55.3815625 79.47925781 55.578125 80.33789062 C55.75859375 81.14033203 55.9390625 81.94277344 56.125 82.76953125 C56.37636719 83.87711792 56.37636719 83.87711792 56.6328125 85.00708008 C57 87 57 87 57 90 C44.31269416 86.55937469 34.31704611 79.05320056 25 70 C24.36449219 69.42636719 23.72898437 68.85273438 23.07421875 68.26171875 C11.10076493 57.13782263 4.58390976 40.64271203 1 25 C1 24.01 1 23.02 1 22 C0.071875 21.566875 0.071875 21.566875 -0.875 21.125 C-3 20 -3 20 -5 18 C-5.66743654 13.30686728 -6.13946604 8.15982412 -3.87890625 3.875 C-2.5 2.25 -2.5 2.25 0 0 Z " fill="#C92837" transform="translate(271,156)"/>
<path d="M0 0 C4.47935946 -0.80866312 8.75999277 -0.52766265 12.9375 1.25 C17.12396078 4.80214854 18.53519716 7.4812846 19 13 C18.13671875 16.2421875 18.13671875 16.2421875 16.6875 19.875 C16.29232178 20.87539307 16.29232178 20.87539307 15.88916016 21.89599609 C14.94267158 24.27098624 13.97112429 26.6349794 13 29 C12.17056706 31.05728931 11.34114033 33.11458112 10.51171875 35.171875 C9.63453417 37.32361933 8.75563093 39.47466384 7.875 41.625 C7.45565186 42.65608887 7.03630371 43.68717773 6.60424805 44.74951172 C0.7777641 58.77124947 0.7777641 58.77124947 -5 62 C-10.43424798 63.76929004 -15.01662593 62.48221294 -20 60 C-23.37998328 56.62001672 -24.83323977 53.91774261 -25.25 49.125 C-24.99640731 38.1974603 -21.32135937 29.69588015 -15 21 C-13.9069864 19.47306102 -12.81458942 17.94568055 -11.72265625 16.41796875 C-8.93871627 12.53628378 -6.13210981 8.67187477 -3.30932617 4.81835938 C-2.17077428 3.23716703 -1.08080734 1.62121101 0 0 Z " fill="#B87909" transform="translate(389,408)"/>
<path d="M0 0 C1.26070313 0.27714844 2.52140625 0.55429688 3.8203125 0.83984375 C5.58790721 1.20878203 7.35619652 1.57440114 9.125 1.9375 C10.06190674 2.13512939 10.99881348 2.33275879 11.96411133 2.53637695 C17.04836403 3.52788016 21.75674805 4.10697437 26.94140625 3.890625 C41.04450668 3.32930167 41.04450668 3.32930167 44.93115234 6.64990234 C49.03275766 11.74670615 53 18.32433608 53 25 C50.18394174 26.55451103 47.34510414 28.06190824 44.5 29.5625 C43.70851563 30.00013672 42.91703125 30.43777344 42.1015625 30.88867188 C36.72834904 33.68538544 32.95962183 34.5172277 27 33 C26.12972168 32.81429443 25.25944336 32.62858887 24.36279297 32.43725586 C6.77234381 28.46215778 6.77234381 28.46215778 2.97265625 23.18359375 C2.22919501 20.03694428 2.02937908 17.22750198 2 14 C1.64412702 12.34506622 1.2518887 10.69724431 0.8125 9.0625 C0.08240754 5.98186597 -0.07158911 3.16644126 0 0 Z " fill="#C92535" transform="translate(346,228)"/>
<path d="M0 0 C1.1328125 1.890625 1.1328125 1.890625 2.125 4.25 C2.45757812 5.01828125 2.79015625 5.7865625 3.1328125 6.578125 C4.85431037 11.38591186 4.85431037 11.38591186 5 14 C0.88558383 19.33762098 -5.88592605 24.12278873 -12 27 C-12.99 27 -13.98 27 -15 27 C-15.33 28.32 -15.66 29.64 -16 31 C-19.63 30.34 -23.26 29.68 -27 29 C-29.91227269 32.28804981 -31.49701212 34.59885603 -32 39 C-32.33 39 -32.66 39 -33 39 C-33.27263672 38.09507812 -33.27263672 38.09507812 -33.55078125 37.171875 C-34.89501629 32.89789693 -36.08049055 29.47560649 -39 26 C-39 25.34 -39 24.68 -39 24 C-39.66 24 -40.32 24 -41 24 C-41.92117061 20.39906035 -42.28640374 18.61372229 -40.6875 15.1875 C-39 13 -39 13 -37 12 C-35.2675 12.1546875 -35.2675 12.1546875 -33.5 12.3125 C-28.64750785 12.37348285 -25.76701953 10.32585827 -21.796875 7.73046875 C-6.04547677 -2.01515892 -6.04547677 -2.01515892 0 0 Z " fill="#D6D4CF" transform="translate(298,128)"/>
<path d="M0 0 C4.66293269 1.67147001 7.3804189 3.78793974 10 8 C12.88028626 14.56705267 11.63422721 19.1047365 9.359375 25.7890625 C7.4549789 30.28737742 4.9855769 34.14860579 2 38 C0.24784894 37.06652642 -1.50163563 36.1280468 -3.25 35.1875 C-4.22453125 34.66542969 -5.1990625 34.14335937 -6.203125 33.60546875 C-8.63355412 32.21034812 -10.80787699 30.73804039 -13 29 C-12.55527344 28.26394531 -12.11054688 27.52789062 -11.65234375 26.76953125 C-11.08644531 25.79371094 -10.52054688 24.81789063 -9.9375 23.8125 C-9.36902344 22.84957031 -8.80054688 21.88664062 -8.21484375 20.89453125 C-6.72100536 18.12535063 -6.72100536 18.12535063 -7.5625 15.5625 C-8.22610761 11.67565542 -6.15258289 9.28635017 -4.0625 6.1875 C-3.67642578 5.59001953 -3.29035156 4.99253906 -2.89257812 4.37695312 C-1.94156662 2.90934278 -0.972514 1.4534509 0 0 Z " fill="#AEADA9" transform="translate(238,275)"/>
<path d="M0 0 C1.90857441 0.94079905 3.75536343 2.00505912 5.5859375 3.08984375 C5.2559375 3.74984375 4.9259375 4.40984375 4.5859375 5.08984375 C1.62773691 5.99575773 -1.37416687 6.49042771 -4.4140625 7.08984375 C-4.4140625 10.38984375 -4.4140625 13.68984375 -4.4140625 17.08984375 C-5.4040625 17.08984375 -6.3940625 17.08984375 -7.4140625 17.08984375 C-9.34745679 19.77606537 -9.34745679 19.77606537 -11.1015625 23.08984375 C-11.72417969 24.20359375 -12.34679687 25.31734375 -12.98828125 26.46484375 C-13.45878906 27.33109375 -13.92929688 28.19734375 -14.4140625 29.08984375 C-18.11282341 27.71697033 -21.3655101 26.02628922 -24.7265625 23.96484375 C-25.60957031 23.42601562 -26.49257812 22.8871875 -27.40234375 22.33203125 C-28.06621094 21.92210937 -28.73007813 21.5121875 -29.4140625 21.08984375 C-27.08980688 13.42882643 -23.28764588 5.64905609 -16.6015625 0.90234375 C-11.26891767 -1.92385487 -5.62742331 -2.12166607 0 0 Z " fill="#AEACA9" transform="translate(213.4140625,259.91015625)"/>
<path d="M0 0 C5.23928596 1.96473223 8.90781308 6.44922475 12.1875 10.8203125 C13.94027427 14.99661545 14.92994033 19.16421301 15.76660156 23.609375 C16.2379716 26.08543478 16.76779125 28.5451518 17.3046875 31.0078125 C18.3017435 35.60506516 19.25445112 40.20966141 20.1875 44.8203125 C16.12212039 43.27030154 12.57795401 41.57183597 9.1875 38.8203125 C7.60483509 34.90408327 7.47677783 31.00722851 7.1875 26.8203125 C5.96330023 18.14257781 3.81994654 13.45905425 -3.046875 7.85546875 C-4.8125 5.8203125 -4.8125 5.8203125 -4.703125 3.12890625 C-3.63950239 0.37188448 -2.98057211 -0.29548775 0 0 Z " fill="#D6D4CF" transform="translate(298.8125,170.1796875)"/>
<path d="M0 0 C13.40851128 0.31248649 33.13463257 5.13463257 43 15 C42.46428571 18.53571429 42.46428571 18.53571429 41 20 C35.64159332 19.60183124 31.39485626 18.00311634 26.625 15.6875 C19.36830656 12.31714987 12.16459922 10.35389213 4.3515625 8.7265625 C1 8 1 8 -1 7 C-1.75 5.125 -1.75 5.125 -2 3 C-1.34 2.01 -0.68 1.02 0 0 Z " fill="#482C14" transform="translate(326,389)"/>
<path d="M0 0 C1.45903258 0.30921884 2.91720722 0.62248799 4.375 0.9375 C5.18710937 1.11152344 5.99921875 1.28554687 6.8359375 1.46484375 C9 2 9 2 11 3 C13.33629951 9.02519346 13.44620398 13.97955294 11.21875 20.171875 C10 22 10 22 8.046875 22.78515625 C3.72078236 23.30752458 1.46857701 23.22195753 -2.5625 21.3125 C-5.33461513 18.55587155 -5.50715839 15.87814875 -5.6875 12.0625 C-5.5027537 8.01306073 -5.11797107 5.39306555 -2.5 2.25 C-1.675 1.5075 -0.85 0.765 0 0 Z " fill="#A7232F" transform="translate(271,156)"/>
<path d="M0 0 C2.475 0.495 2.475 0.495 5 1 C5.69921875 3.1875 5.69921875 3.1875 6 6 C4.70703125 8.5 4.70703125 8.5 2.8125 11 C2.15507812 11.87269531 1.49765625 12.74539063 0.8203125 13.64453125 C0.21960938 14.42183594 -0.38109375 15.19914062 -1 16 C-1.598125 16.886875 -2.19625 17.77375 -2.8125 18.6875 C-8.34861422 24.5399636 -15.63469712 28.84344162 -23 32 C-23.66 31.67 -24.32 31.34 -25 31 C-22.1766209 25.01389334 -19.17472635 20.92437667 -14.05078125 16.74609375 C-8.46059477 11.98644926 -4.13719767 6.01774207 0 0 Z " fill="#492C14" transform="translate(260,337)"/>
<path d="M0 0 C0.66 0 1.32 0 2 0 C3.90431733 15.7786293 -9.99234235 30.94545108 -18.22314453 43.30957031 C-21.34730803 48.04002948 -24.35369727 52.84456822 -27.36328125 57.6484375 C-29 60 -29 60 -31 61 C-31.84734944 57.64054822 -32.30041749 55.69032951 -30.89526367 52.46142578 C-30.32525635 51.6311084 -29.75524902 50.80079102 -29.16796875 49.9453125 C-28.53874512 49.00848633 -27.90952148 48.07166016 -27.26123047 47.10644531 C-26.57689941 46.12256836 -25.89256836 45.13869141 -25.1875 44.125 C-23.79718518 42.0605635 -22.40786567 39.99545634 -21.01953125 37.9296875 C-20.3332666 36.9200293 -19.64700195 35.91037109 -18.93994141 34.87011719 C-11.36603615 23.66462635 -5.00907745 12.58977949 0 0 Z " fill="#492C14" transform="translate(318,293)"/>
<path d="M0 0 C3.57040303 0.65902299 6.17732255 2.16229158 9.25 4.0625 C10.14203125 4.61035156 11.0340625 5.15820312 11.953125 5.72265625 C12.96632812 6.35494141 12.96632812 6.35494141 14 7 C12.6926925 10.43931834 11.18963666 13.61300905 9.375 16.8125 C8.92898437 17.60269531 8.48296875 18.39289063 8.0234375 19.20703125 C7.68570313 19.79871094 7.34796875 20.39039063 7 21 C2.02790438 19.23570801 -2.43438061 16.6060834 -7 14 C-6.44010697 10.00987629 -5.24330232 7.4744948 -2.9375 4.1875 C-2.38964844 3.39730469 -1.84179688 2.60710937 -1.27734375 1.79296875 C-0.64505859 0.90544922 -0.64505859 0.90544922 0 0 Z " fill="#EAA92A" transform="translate(208,351)"/>
<path d="M0 0 C4.06225548 0.57823096 6.84762346 1.89117737 10.3125 4.0625 C11.19550781 4.61035156 12.07851562 5.15820312 12.98828125 5.72265625 C13.65214844 6.14417969 14.31601563 6.56570313 15 7 C14.26043955 8.58823638 13.50784063 10.17040447 12.75 11.75 C12.33234375 12.63171875 11.9146875 13.5134375 11.484375 14.421875 C10 17 10 17 6 21 C2.04 18.69 -1.92 16.38 -6 14 C-5.16184862 9.80924309 -4.49330151 7.71926157 -2.4375 4.1875 C-1.98246094 3.39730469 -1.52742187 2.60710937 -1.05859375 1.79296875 C-0.53458984 0.90544922 -0.53458984 0.90544922 0 0 Z " fill="#EAA92B" transform="translate(145,315)"/>
<path d="M0 0 C1.84619141 0.66845703 1.84619141 0.66845703 2.84619141 1.66845703 C3.1574707 4.03637695 3.1574707 4.03637695 2.84619141 6.66845703 C1.18139648 8.33764648 1.18139648 8.33764648 -1.13427734 9.78173828 C-2.3862793 10.56967773 -2.3862793 10.56967773 -3.66357422 11.37353516 C-4.54722656 11.90398437 -5.43087891 12.43443359 -6.34130859 12.98095703 C-7.6377832 13.80563477 -7.6377832 13.80563477 -8.96044922 14.64697266 C-16.05262105 19.02183728 -16.05262105 19.02183728 -21.15380859 18.66845703 C-21.81380859 17.01845703 -22.47380859 15.36845703 -23.15380859 13.66845703 C-18.83779602 9.91365972 -14.41918517 6.75495998 -9.52880859 3.79345703 C-8.87396484 3.37837891 -8.21912109 2.96330078 -7.54443359 2.53564453 C-2.68778166 -0.41373923 -2.68778166 -0.41373923 0 0 Z " fill="#482C14" transform="translate(257.15380859375,372.33154296875)"/>
<path d="M0 0 C7.11623701 2.56928272 7.11623701 2.56928272 9.19921875 5.94140625 C10.3971797 9.11454183 11 11.58821968 11 15 C11.99 15 12.98 15 14 15 C14.33 17.31 14.66 19.62 15 22 C12.24752969 23.33691415 10.39508723 24.01837615 7.3125 23.875 C5 23 5 23 3.95703125 21.34375 C2.7868558 18.4780142 2.07107749 15.64133581 1.375 12.625 C0.98441406 10.97371094 0.98441406 10.97371094 0.5859375 9.2890625 C0.01994753 6.11197215 -0.10695826 3.21847142 0 0 Z " fill="#A8222F" transform="translate(310,210)"/>
</svg>
