<?xml version="1.0" encoding="UTF-8"?>
<svg version="1.1" xmlns="http://www.w3.org/2000/svg" width="512" height="512">
<path d="M0 0 C4.38632877 0.01139359 8.77241477 0.0046126 13.15873528 -0.0068779 C73.97989866 -0.14214751 133.27247196 8.6053172 183.26660156 46.26074219 C184.26660156 48.26074219 184.26660156 48.26074219 183.64160156 51.82324219 C183.59286358 55.14351748 184.19987745 56.18020021 186.36035156 58.78808594 C191.50079969 63.47782984 191.50079969 63.47782984 197.94238281 65.58105469 C199.60627771 65.45166939 201.26916997 65.30860638 202.93066406 65.15136719 C207.62004909 65.37093706 210.25824284 68.98484168 213.26660156 72.26074219 C213.93949219 72.94007812 214.61238281 73.61941406 215.30566406 74.31933594 C233.05960631 92.94483535 246.31321248 116.27025092 255.26660156 140.26074219 C255.56856445 141.04690918 255.87052734 141.83307617 256.18164062 142.64306641 C261.24863247 156.04845744 264.42391598 169.91785519 259.26660156 183.82324219 C255.60547224 191.32231674 250.02687886 197.40179288 243.26660156 202.26074219 C243.74097656 203.31261719 244.21535156 204.36449219 244.70410156 205.44824219 C248.89056845 214.73127746 248.63962736 226.90367519 245.76660156 236.57324219 C242.55172188 244.97082827 236.90119681 252.24814024 230.26660156 258.26074219 C231.1521875 258.66679688 231.1521875 258.66679688 232.05566406 259.08105469 C240.00182075 263.32087681 244.03838441 271.17472861 247.26660156 279.26074219 C250.03728911 288.59358445 250.06609946 297.2210446 246.26660156 306.26074219 C243.5752538 310.72370542 240.64257407 314.36994823 236.26660156 317.26074219 C235.60660156 317.26074219 234.94660156 317.26074219 234.26660156 317.26074219 C234.26660156 334.09074219 234.26660156 350.92074219 234.26660156 368.26074219 C235.91660156 368.92074219 237.56660156 369.58074219 239.26660156 370.26074219 C246.87691803 375.5937291 251.77607229 382.32093843 254.26660156 391.26074219 C256.81776608 415.24168869 244.61603783 441.69468105 229.79541016 460.08642578 C226.4650718 463.99343682 222.92109468 467.65825182 219.26660156 471.26074219 C218.17798828 472.36482422 218.17798828 472.36482422 217.06738281 473.49121094 C197.85597832 491.82437979 171.09128976 500.42082295 144.99147034 500.40118408 C143.7553785 500.4041552 142.51928666 500.40712633 141.24573749 500.41018748 C137.82634889 500.41734616 134.40701055 500.42004512 130.98761809 500.42078495 C127.29482505 500.42264162 123.60204276 500.43019214 119.90925598 500.43692017 C111.83860715 500.45048054 103.76796329 500.45652495 95.69730496 500.46093082 C90.65225129 500.46369778 85.60719952 500.46793601 80.56214714 500.472435 C66.57831346 500.48462588 52.59448131 500.49492476 38.61064243 500.49831009 C37.71625945 500.49852966 36.82187647 500.49874922 35.90039098 500.49897544 C35.00393084 500.49919372 34.1074707 500.499412 33.1838451 500.49963689 C31.36743645 500.50008035 29.55102779 500.50052691 27.73461914 500.50097656 C26.38313202 500.50130871 26.38313202 500.50130871 25.00434213 500.50164756 C10.42062285 500.50559156 -4.16304634 500.52303422 -18.74674629 500.54633608 C-33.74005168 500.57009783 -48.73333199 500.58251417 -63.7266565 500.58367801 C-72.13650337 500.58459219 -80.546285 500.59027932 -88.95611382 500.60849762 C-96.12062826 500.62396402 -103.28505732 500.62898085 -110.44958531 500.62075952 C-114.09918571 500.61687568 -117.74861452 500.61767027 -121.39819336 500.63181686 C-139.02708408 500.69622166 -155.62705483 500.53785818 -172.29589844 494.13574219 C-173.08472412 493.83788818 -173.8735498 493.54003418 -174.6862793 493.2331543 C-202.02689773 482.4771384 -222.63916256 460.69255284 -234.73339844 434.26074219 C-236.98412825 429.01113144 -238.90212807 423.66897991 -240.73339844 418.26074219 C-241.24580078 416.82988281 -241.24580078 416.82988281 -241.76855469 415.37011719 C-244.94012723 405.51611506 -245.72222724 393.11774334 -241.20214844 383.57714844 C-237.23492177 377.32032553 -232.36242613 371.70252451 -225.73339844 368.26074219 C-225.07339844 368.26074219 -224.41339844 368.26074219 -223.73339844 368.26074219 C-223.73339844 351.43074219 -223.73339844 334.60074219 -223.73339844 317.26074219 C-225.38339844 316.60074219 -227.03339844 315.94074219 -228.73339844 315.26074219 C-234.50326112 310.2220833 -237.56965482 303.77018211 -238.73339844 296.26074219 C-238.829855 281.7150921 -234.40741318 271.1446503 -224.48339844 260.76074219 C-221.73339844 258.26074219 -221.73339844 258.26074219 -219.73339844 258.26074219 C-220.43464844 257.60074219 -221.13589844 256.94074219 -221.85839844 256.26074219 C-231.31012112 246.75546867 -237.13328952 235.67466356 -237.10839844 222.07324219 C-237.1096875 221.33726807 -237.11097656 220.60129395 -237.11230469 219.84301758 C-236.984764 213.17539337 -235.3773263 207.38662862 -232.73339844 201.26074219 C-233.24128906 200.92042969 -233.74917969 200.58011719 -234.27246094 200.22949219 C-242.47877639 194.45126258 -248.3976678 187.17802471 -250.73339844 177.26074219 C-255.11084389 148.33286837 -236.00144297 115.56629136 -219.56152344 92.80371094 C-212.86255805 83.76030907 -205.66983404 75.23961862 -197.73339844 67.26074219 C-197.20697754 66.73029297 -196.68055664 66.19984375 -196.13818359 65.65332031 C-182.69217726 52.27556782 -167.22800255 41.53976136 -150.73339844 32.26074219 C-150.10739746 31.90061035 -149.48139648 31.54047852 -148.83642578 31.16943359 C-102.35500433 4.5566793 -52.38892601 -0.13725831 0 0 Z " fill="#020100" transform="translate(250.7333984375,6.7392578125)"/>
<path d="M0 0 C0.74350582 -0.00058914 1.48701164 -0.00117828 2.25304794 -0.00178528 C24.44338975 -0.01418577 46.41323022 0.21310888 68.4375 3.25 C69.41412598 3.36794922 70.39075195 3.48589844 71.39697266 3.60742188 C103.67313526 7.57814701 140.09005551 22.08647963 165.7421875 42.04296875 C168.33232997 43.88710245 170.34015546 43.56605556 173.4375 43.25 C175.11615035 42.61411068 176.78527938 41.95170453 178.4375 41.25 C182.77794571 44.30297136 186.82709388 47.34329915 190.4375 51.25 C190.72698147 53.81147238 190.19289525 55.43869674 189.51953125 57.90625 C189.36106269 62.43392315 192.97874623 65.31460227 195.84375 68.515625 C196.6996875 69.41796875 197.555625 70.3203125 198.4375 71.25 C215.2661351 89.14523873 227.12066103 110.09428369 235.62402344 133.05712891 C236.33608803 134.97662596 237.07593695 136.88576924 237.8203125 138.79296875 C240.97745514 147.32608505 242.20295753 155.02320817 238.4375 163.5625 C235.08866339 169.51283398 230.74431522 173.14325385 224.28122944 175.3063609 C220.33282332 176.27569822 216.71268085 176.53016876 212.68001652 176.50447559 C211.549572 176.50928531 211.549572 176.50928531 210.39629021 176.51419219 C207.87463482 176.52248399 205.35321745 176.51657081 202.83155823 176.51069641 C201.00393023 176.51371746 199.1763035 176.51760671 197.34867901 176.52228898 C192.32902039 176.53258357 187.30943308 176.53038343 182.28976858 176.52610838 C176.87522888 176.52364384 171.46070648 176.53265192 166.0461731 176.54014587 C155.43980506 176.55290216 144.83346233 176.55468543 134.22708792 176.55234561 C125.60746856 176.55056344 116.98785689 176.55230993 108.36823845 176.55657005 C107.14201163 176.55716524 105.91578482 176.55776043 104.65239961 176.55837366 C102.1614252 176.55958539 99.67045078 176.56079952 97.17947637 176.56201603 C73.81382577 176.57289502 50.4481896 176.5707273 27.08253818 176.56463119 C5.70033301 176.55930838 -15.68182566 176.57071967 -37.06402194 176.58972941 C-59.01364736 176.6090942 -80.96325122 176.61736624 -102.91288525 176.61360615 C-115.23821293 176.61169214 -127.56350183 176.61420119 -139.88882256 176.62832069 C-150.3806686 176.6402181 -160.872452 176.64165777 -171.36429887 176.62953053 C-176.71815881 176.62363051 -182.07190407 176.62257347 -187.42575645 176.63453293 C-192.32650609 176.64535313 -197.22704477 176.64233447 -202.12778438 176.62827124 C-203.90092232 176.62561367 -205.6740766 176.628024 -207.44719856 176.63600711 C-209.85811193 176.64610856 -212.26829132 176.63769549 -214.67917538 176.62473011 C-215.71073736 176.63569413 -215.71073736 176.63569413 -216.76313898 176.64687964 C-224.17582103 176.56430135 -230.59546603 174.08686001 -236.01953125 169.03515625 C-240.64411456 163.68468898 -242.36271829 157.50605774 -242.0703125 150.5078125 C-235.57936789 108.86590629 -203.90941342 69.3151488 -171.08325195 44.85351562 C-119.38995119 7.32809715 -62.02619256 0.02252504 0 0 Z " fill="#F68D3B" transform="translate(256.5625,21.75)"/>
<path d="M0 0 C5.76875596 3.31169324 10.26698321 7.75453998 14.8125 12.5625 C21.96262818 19.82716112 29.57772484 22.05340857 39.5625 22.25 C52.10755073 22.23628956 58.59974419 17.46163561 67.375 8.9375 C68.99091955 7.44841872 70.61549013 5.96865126 72.25 4.5 C73.29800781 3.54287109 73.29800781 3.54287109 74.3671875 2.56640625 C79.18521617 -1.34238355 83.25448329 -1.56941999 89.35546875 -1.421875 C97.31785412 -0.47421723 101.97929236 5.41345059 107.29785156 10.90722656 C114.06354133 17.82378886 121.18414694 22.09008755 131.08276367 22.3190918 C145.89204323 22.27129137 153.91660333 16.7974694 164.375 6.9375 C165.64923828 5.62072266 165.64923828 5.62072266 166.94921875 4.27734375 C171.14904386 0.22630471 174.31311536 -1.5009075 180.1875 -1.5625 C186.02582485 -1.4257205 190.04480403 -0.00408864 194.375 3.9375 C195.035 4.9275 195.695 5.9175 196.375 6.9375 C191.90250285 11.5170516 187.35026475 15.91998681 182.5 20.09765625 C178.40122316 23.64641341 174.39861823 27.30405081 170.375 30.9375 C165.09240942 35.70783937 159.79565865 40.45644407 154.4296875 45.1328125 C150.37530997 48.69388173 146.3798707 52.3209804 142.375 55.9375 C132.88115783 64.51072717 132.88115783 64.51072717 128.0625 68.6875 C125.03285453 71.3246408 122.1720863 74.05565351 119.375 76.9375 C119.045 77.2675 118.715 77.5975 118.375 77.9375 C118.55067358 81.41805874 118.55067358 81.41805874 119.375 84.9375 C122.21630196 87.22046054 122.21630196 87.22046054 125.5625 87 C130.81505639 85.53617281 133.51517987 82.66933307 137.375 78.9375 C139.2247861 77.2451993 141.07917289 75.5579173 142.9375 73.875 C143.80503906 73.07964844 144.67257812 72.28429687 145.56640625 71.46484375 C146.49324219 70.63082031 147.42007812 69.79679687 148.375 68.9375 C148.85444848 68.43138215 149.33389696 67.9252643 149.82787418 67.40380955 C153.92082663 63.35447152 156.90760108 62.24174674 162.63012695 62.15765381 C163.54616699 62.17451233 164.46220703 62.19137085 165.40600586 62.20874023 C166.88055992 62.20019768 166.88055992 62.20019768 168.38490295 62.19148254 C171.62062372 62.18040725 174.85430386 62.21239996 178.08984375 62.24609375 C180.34753686 62.24967291 182.60523449 62.25102784 184.8629303 62.2502594 C189.58981385 62.25494588 194.31601319 62.27974805 199.04272461 62.32006836 C205.08973334 62.3710083 211.13599027 62.38251163 217.18318844 62.38023281 C221.84419377 62.38105024 226.50503606 62.39753158 231.16598701 62.41923714 C233.39502289 62.42875752 235.62407716 62.43469006 237.85313225 62.43691826 C240.97393847 62.44345333 244.09396272 62.46978027 247.21459961 62.50170898 C248.12861542 62.50034943 249.04263123 62.49898987 249.98434448 62.49758911 C256.37704427 62.59279563 262.30519747 63.38328206 267.3984375 67.62109375 C267.84445312 68.19988281 268.29046875 68.77867187 268.75 69.375 C269.21148437 69.95121094 269.67296875 70.52742188 270.1484375 71.12109375 C273.7093938 76.39448445 274.0171289 80.67124559 273.375 86.9375 C272.4883103 90.77821573 271.23387292 94.42789192 269.875 98.125 C269.5126123 99.13095215 269.15022461 100.1369043 268.77685547 101.17333984 C259.63887544 125.86684279 243.84156963 146.97479361 219.7890625 158.76171875 C205.49402734 165.13826814 191.94882091 168.09270969 176.4213562 168.07121277 C175.21989964 168.07347833 174.01844307 168.07574388 172.78057873 168.07807809 C169.45800992 168.08330259 166.13549534 168.0840648 162.81292629 168.08288372 C159.22448784 168.08267921 155.63605738 168.08820331 152.04762268 168.09294128 C145.02102795 168.10123822 137.99444161 168.10399571 130.96784239 168.10455366 C125.2530164 168.10502938 119.53819318 168.1070869 113.82336807 168.11025429 C97.60600645 168.11905908 81.38865143 168.12367406 65.1712874 168.12292381 C64.29749693 168.12288386 63.42370647 168.1228439 62.5234375 168.12280273 C61.64857469 168.12276185 60.77371188 168.12272097 59.87233807 168.12267885 C45.70369476 168.12227267 31.53507805 168.1318357 17.36644243 168.1459411 C2.80368634 168.16032393 -11.75905678 168.1672102 -26.32182014 168.16634732 C-34.49178114 168.16601596 -42.66171427 168.16873623 -50.83166885 168.17952538 C-57.7898459 168.1886556 -64.74798243 168.19078506 -71.70616288 168.18401595 C-75.25206698 168.18076314 -78.79789346 168.18064889 -82.34379005 168.1893692 C-86.19904689 168.19875221 -90.05419191 168.1924257 -93.90945435 168.18473816 C-95.5672363 168.1924535 -95.5672363 168.1924535 -97.2585088 168.20032471 C-124.71106467 168.07999256 -148.18918144 158.27987712 -167.625 138.9375 C-180.11919548 125.6624173 -186.87536294 109.98039812 -192.625 92.9375 C-193.00914062 91.865 -193.39328125 90.7925 -193.7890625 89.6875 C-195.31594191 84.66449484 -195.72186112 79.58447064 -193.6796875 74.65625 C-190.52518385 69.33922497 -186.44554064 65.23125036 -180.625 62.9375 C-178.02486823 62.73157199 -175.52963319 62.63325652 -172.92893982 62.62969971 C-171.75939203 62.61655295 -171.75939203 62.61655295 -170.56621701 62.60314059 C-167.95095443 62.57641065 -165.33582657 62.56401755 -162.72045898 62.55175781 C-160.84610895 62.53595198 -158.97176497 62.51941384 -157.09742737 62.50219727 C-150.93870847 62.44979297 -144.77996265 62.41914225 -138.62109375 62.390625 C-136.49901882 62.37990349 -134.37694406 62.36914847 -132.25486946 62.35836029 C-123.42504831 62.31510498 -114.59523441 62.27763468 -105.76533413 62.25511551 C-93.12215988 62.22265669 -80.48021684 62.15635158 -67.83750671 62.04231381 C-58.94221097 61.96482196 -50.04724385 61.92583917 -41.15161949 61.91527438 C-35.84164861 61.90797868 -30.53299133 61.88406513 -25.22338676 61.81906891 C-20.22334867 61.75873996 -15.22541293 61.74633871 -10.22508812 61.76983643 C-8.39614761 61.77027658 -6.56710725 61.75377389 -4.73850632 61.71852875 C4.34760485 61.55301922 10.83010212 61.50228589 17.80064392 67.79168701 C19.35237979 69.48261598 20.88030126 71.19594878 22.375 72.9375 C23.68645147 74.12871112 25.01548217 75.30145416 26.375 76.4375 C29.58399244 79.22564098 32.73416444 82.07278185 35.875 84.9375 C37.70810544 86.60441731 39.54142266 88.27110177 41.375 89.9375 C42.0659375 90.56914062 42.756875 91.20078125 43.46875 91.8515625 C56.70136231 103.72837437 68.82063671 111.53918636 86.94140625 111.26171875 C92.64776885 110.7228927 98.14754015 109.30211497 103.375 106.9375 C105.68782587 103.46826119 105.79978586 102.01544425 105.375 97.9375 C104.43902685 95.91798938 104.43902685 95.91798938 102.375 94.9375 C98.76766686 94.59718555 96.09579791 94.66929613 92.6875 95.9375 C85.03081431 98.24895228 77.11499593 97.69891705 69.85546875 94.375 C60.7612638 89.1046576 53.22158625 81.10275065 45.59765625 73.9453125 C42.55438059 71.0927359 39.44555866 68.3282379 36.2890625 65.6015625 C31.39321976 61.34517677 26.61148699 56.95711553 21.796875 52.609375 C18.0319915 49.21405062 14.26306449 45.82691658 10.4375 42.5 C6.24335635 38.84812947 2.14405708 35.09483816 -1.96484375 31.34765625 C-4.80772312 28.77194909 -7.68815273 26.24453515 -10.58203125 23.7265625 C-16.05763707 18.93148131 -21.51788515 14.12660981 -26.625 8.9375 C-18.68738916 0.36581965 -11.72294175 -3.43603465 0 0 Z " fill="#F68D3B" transform="translate(216.625,324.0625)"/>
<path d="M0 0 C1.01244278 -0.01328842 2.02488556 -0.02657684 3.06800842 -0.04026794 C6.39502925 -0.07877415 9.72161288 -0.09452888 13.04882812 -0.10668945 C15.37235608 -0.12141945 17.69588309 -0.13629907 20.01940918 -0.15132141 C24.88129449 -0.17826068 29.74302748 -0.19184951 34.60498047 -0.19824219 C40.82622539 -0.20912863 47.04585513 -0.27091302 53.26662445 -0.34495831 C58.06229083 -0.39337725 62.85756772 -0.40577043 67.65345764 -0.40830421 C69.94678192 -0.41552351 72.24010508 -0.43595274 74.53318787 -0.47000694 C77.74339785 -0.51405575 80.94978304 -0.50726583 84.16015625 -0.48828125 C85.10065323 -0.51233032 86.04115021 -0.53637939 87.01014709 -0.56115723 C92.46502446 -0.46642803 95.13925668 0.46450568 99.05187988 4.36418152 C100.23920898 5.72219855 101.41646976 7.08913305 102.58007812 8.4675293 C113.27199621 18.18480995 121.12040917 22.44988126 135.54882812 21.84643555 C144.56386946 21.18441939 150.96038126 16.3015178 157.58007812 10.4675293 C158.26346473 9.63468351 158.94685133 8.80183773 159.65094662 7.9437542 C164.63154592 2.26625397 168.42342199 -0.06510286 175.87118256 -0.66027045 C180.90772113 -0.84498195 185.92861231 -0.80410231 190.96704102 -0.73120117 C193.23813448 -0.73493281 195.50922431 -0.74301368 197.7802887 -0.75509644 C203.92544857 -0.77499416 210.06875419 -0.73279432 216.21364522 -0.67813635 C222.65512349 -0.63035383 229.09656883 -0.63636529 235.53819275 -0.63552856 C246.35304776 -0.62628186 257.16709858 -0.57935661 267.98168945 -0.5065918 C279.09082474 -0.43189438 290.19944898 -0.38939883 301.30883789 -0.38354492 C302.33549637 -0.38299649 302.33549637 -0.38299649 303.38289542 -0.38243698 C304.40784131 -0.38190006 304.40784131 -0.38190006 305.45349318 -0.38135231 C306.82951773 -0.38062142 308.20554227 -0.37987668 309.58156681 -0.37911797 C310.59966753 -0.37856142 310.59966753 -0.37856142 311.63833595 -0.37799364 C322.89419002 -0.37040763 334.14994842 -0.32875685 345.40572047 -0.28711176 C349.23499504 -0.27467522 353.06425228 -0.2673896 356.89354134 -0.26104355 C362.91760494 -0.24921063 368.9412185 -0.21649729 374.96509361 -0.16783524 C377.17168319 -0.15300056 379.37832933 -0.1448143 381.58496857 -0.14387512 C384.60508293 -0.14134426 387.62402655 -0.11413764 390.64393616 -0.08078003 C391.51000443 -0.0856102 392.3760727 -0.09044037 393.26838547 -0.0954169 C402.32681071 0.06044602 410.22784117 3.14541699 416.81835938 9.4284668 C422.12307036 15.5682875 424.45057059 21.87648927 423.98242188 29.99487305 C423.35746963 33.83559898 422.31076968 35.67182128 419.58007812 38.4675293 C417.21479925 39.93321231 414.79640086 41.27815891 412.36523438 42.6315918 C409.153815 44.74851621 406.59398578 47.26392877 403.95507812 50.0300293 C397.67571131 56.49711522 393.4503934 60.63732926 384.14257812 61.1550293 C377.52486106 60.87929109 373.39535776 58.94731814 368.58007812 54.4675293 C367.06788751 52.77788775 365.64919538 51.03829629 364.23242188 49.26831055 C357.40933044 41.83227 348.88509332 37.55627092 338.92529297 36.96459961 C326.9717109 36.62474013 318.86411551 41.01704782 310.20507812 49.0300293 C308.80128906 50.39321289 308.80128906 50.39321289 307.36914062 51.78393555 C298.83125176 59.99896306 298.83125176 59.99896306 294.58007812 60.4675293 C293.35224609 60.6202832 293.35224609 60.6202832 292.09960938 60.77612305 C284.50552972 61.13774589 280.2528706 59.4694524 274.58007812 54.4675293 C272.04098393 51.94453079 269.55262756 49.37672755 267.06054688 46.80737305 C258.76686646 38.98388554 249.16367532 36.95835347 238.01367188 37.15893555 C227.17561288 38.13300456 219.1981176 45.66758137 211.95507812 53.2175293 C206.77050172 58.46467818 202.4782175 60.56233619 195.08007812 60.9050293 C185.98964384 60.55919756 181.81769813 55.81151973 175.84667969 49.61889648 C167.76685396 41.39528193 159.26362553 37.48937236 147.76757812 37.0925293 C134.4634553 37.38755208 127.68041618 43.59822944 118.58007812 52.4675293 C111.45535558 58.95268967 107.42404889 60.98088237 97.69335938 60.7644043 C92.36463341 60.25626983 90.02224908 57.94832983 86.39257812 54.22143555 C76.59847438 44.16717592 67.85190977 37.62149725 53.64257812 37.1550293 C42.94742623 37.38373066 35.6897807 41.35782672 28.20507812 48.8425293 C22.06615403 54.98145339 16.39268449 60.56248133 7.51757812 60.9050293 C-2.55369535 60.77236708 -7.08983599 55.90548797 -13.85742188 48.9675293 C-14.31584473 48.48678955 -14.77426758 48.0060498 -15.24658203 47.51074219 C-18.9003821 43.75733976 -22.66877591 41.22541119 -27.32617188 38.8815918 C-30.00509222 37.07232096 -31.05005418 35.38277899 -32.41992188 32.4675293 C-33.66972987 25.6873209 -32.45640739 19.7819019 -29.09960938 13.8269043 C-21.60533779 3.300067 -12.44970337 0.02359603 0 0 Z " fill="#7FCD00" transform="translate(60.419921875,271.532470703125)"/>
<path d="M0 0 C5.76875596 3.31169324 10.26698321 7.75453998 14.8125 12.5625 C21.96262818 19.82716112 29.57772484 22.05340857 39.5625 22.25 C52.10755073 22.23628956 58.59974419 17.46163561 67.375 8.9375 C68.99091955 7.44841872 70.61549013 5.96865126 72.25 4.5 C73.29800781 3.54287109 73.29800781 3.54287109 74.3671875 2.56640625 C79.18521617 -1.34238355 83.25448329 -1.56941999 89.35546875 -1.421875 C97.31785412 -0.47421723 101.97929236 5.41345059 107.29785156 10.90722656 C114.06354133 17.82378886 121.18414694 22.09008755 131.08276367 22.3190918 C145.89204323 22.27129137 153.91660333 16.7974694 164.375 6.9375 C165.64923828 5.62072266 165.64923828 5.62072266 166.94921875 4.27734375 C171.14904386 0.22630471 174.31311536 -1.5009075 180.1875 -1.5625 C186.02582485 -1.4257205 190.04480403 -0.00408864 194.375 3.9375 C195.365 5.4225 195.365 5.4225 196.375 6.9375 C191.90250285 11.5170516 187.35026475 15.91998681 182.5 20.09765625 C178.40122316 23.64641341 174.39861823 27.30405081 170.375 30.9375 C165.09240942 35.70783937 159.79565865 40.45644407 154.4296875 45.1328125 C150.37530997 48.69388173 146.3798707 52.3209804 142.375 55.9375 C132.88115783 64.51072717 132.88115783 64.51072717 128.0625 68.6875 C125.03285453 71.3246408 122.1720863 74.05565351 119.375 76.9375 C119.045 77.2675 118.715 77.5975 118.375 77.9375 C118.684375 79.113125 118.99375 80.28875 119.3125 81.5 C119.76397601 84.56122755 119.62935732 85.58064048 117.8046875 88.140625 C115.73754188 90.20014278 113.64257931 92.10145284 111.375 93.9375 C110.67375 94.5253125 109.9725 95.113125 109.25 95.71875 C108.321875 96.32203125 108.321875 96.32203125 107.375 96.9375 C105.0625 96.125 105.0625 96.125 102.375 94.9375 C98.76707894 94.67510574 96.0907026 94.67119205 92.6875 95.9375 C85.03081431 98.24895228 77.11499593 97.69891705 69.85546875 94.375 C60.7612638 89.1046576 53.22158625 81.10275065 45.59765625 73.9453125 C42.55438059 71.0927359 39.44555866 68.3282379 36.2890625 65.6015625 C31.39321976 61.34517677 26.61148699 56.95711553 21.796875 52.609375 C18.0319915 49.21405062 14.26306449 45.82691658 10.4375 42.5 C6.24335635 38.84812947 2.14405708 35.09483816 -1.96484375 31.34765625 C-4.80772312 28.77194909 -7.68815273 26.24453515 -10.58203125 23.7265625 C-16.05763707 18.93148131 -21.51788515 14.12660981 -26.625 8.9375 C-18.68738916 0.36581965 -11.72294175 -3.43603465 0 0 Z " fill="#FDBF42" transform="translate(216.625,324.0625)"/>
<path d="M0 0 C1.79940392 -0.00429655 3.59880238 -0.01205914 5.3981781 -0.02301025 C10.2639459 -0.04232611 15.12823629 -0.01188987 19.99382544 0.02880192 C25.08930017 0.06402975 30.18473226 0.05689228 35.28030396 0.05535889 C43.82953523 0.05909911 52.3781968 0.09375807 60.92724609 0.1484375 C70.81647969 0.21145416 80.70509106 0.23242549 90.59451091 0.22949529 C100.110948 0.22705631 109.62718231 0.24745048 119.1435585 0.28066254 C123.19375312 0.29479707 127.243876 0.30211591 131.29409409 0.30423737 C136.05659662 0.30824792 140.81857452 0.33260624 145.58090401 0.37290192 C147.33085608 0.38460744 149.08086853 0.38950224 150.83085823 0.38719177 C153.21428797 0.38523531 155.59623775 0.40778057 157.97946167 0.43682861 C159.02521057 0.427537 159.02521057 0.427537 160.09208572 0.41805768 C163.25503571 0.48201137 164.81834028 0.56416212 167.10580635 2.84495163 C170.66734151 9.60031785 171.6765285 17.0277854 169.50439453 24.43652344 C168.54130937 26.71751461 167.46516224 28.82832608 166.22705078 30.97167969 C165.86482422 31.61105469 165.50259766 32.25042969 165.12939453 32.90917969 C160.91876502 39.53200035 154.66605767 42.90288888 147.22705078 44.97167969 C144.28872128 45.2471544 141.36868884 45.23336803 138.41921997 45.21218872 C137.10683517 45.214752 137.10683517 45.214752 135.76793754 45.21736705 C132.84292913 45.22065531 129.91815127 45.20966915 126.99316406 45.19873047 C124.89378362 45.19816621 122.79440279 45.1984832 120.69502258 45.19961548 C114.99924396 45.20018942 109.30354953 45.18842825 103.60779047 45.17446756 C97.65404849 45.16196725 91.70030459 45.16079025 85.74655151 45.15841675 C74.47383032 45.15219993 63.20114791 45.13578636 51.92844379 45.11571777 C39.09421325 45.09336507 26.25998087 45.08236691 13.42573571 45.0723269 C-12.97384743 45.05142033 -39.37339615 45.0162404 -65.77294922 44.97167969 C-64.98380127 44.18325684 -64.19465332 43.39483398 -63.3815918 42.58251953 C-61.92699102 41.12669354 -60.47524097 39.66795037 -59.03466797 38.19824219 C-55.49513333 34.5972268 -51.83033545 31.21787518 -48.00732422 27.92089844 C-45.39443546 25.64147275 -42.83364901 23.30955616 -40.27294922 20.97167969 C-32.68333858 14.05112563 -32.68333858 14.05112563 -28.81485176 10.81163406 C-26.73693531 9.02376123 -26.73693531 9.02376123 -25.0506115 6.92625046 C-17.94153317 -0.91173627 -9.79180508 -0.13581909 0 0 Z " fill="#F62B2B" transform="translate(312.77294921875,212.0283203125)"/>
<path d="M0 0 C53.46 0 106.92 0 162 0 C157.7929227 4.2070773 153.52733505 8.30870112 149.1875 12.375 C148.51396484 13.00921875 147.84042969 13.6434375 147.14648438 14.296875 C143.10165528 18.09011186 138.99212441 21.79173231 134.8059082 25.42822266 C132.5121051 27.42464071 130.25419418 29.45904041 128 31.5 C125.04130249 34.17048344 122.07073528 36.82298058 119.0625 39.4375 C115.83440488 42.24822525 112.66261557 45.115799 109.5 48 C89.640449 66.07658026 89.640449 66.07658026 80.75 66.3125 C79.83734375 66.34988281 78.9246875 66.38726562 77.984375 66.42578125 C70.64607191 65.3788244 65.66772947 60.14015788 60.5625 55.1875 C59.2377965 53.92622434 57.9122848 52.66579694 56.5859375 51.40625 C55.96170898 50.81070313 55.33748047 50.21515625 54.69433594 49.6015625 C52.154035 47.20035585 49.5262557 44.91031539 46.87890625 42.62890625 C41.98975358 38.39028533 37.22407526 34.00840736 32.421875 29.671875 C28.00015067 25.68418496 23.55695465 21.7263585 19.06640625 17.81640625 C15.81816434 14.96114635 12.61801458 12.05280298 9.41015625 9.15234375 C7.25961653 7.23184556 5.07990525 5.35746563 2.875 3.5 C1.92625 2.675 0.9775 1.85 0 1 C0 0.67 0 0.34 0 0 Z " fill="#FEC042" transform="translate(111,213)"/>
<path d="M0 0 C21.70415489 3.80774647 45.99709578 16.35633191 63.3203125 29.80078125 C65.89935752 31.64209944 67.91484907 31.31481132 71 31 C72.67865035 30.36411068 74.34777938 29.70170453 76 29 C80.34044571 32.05297136 84.38959388 35.09329915 88 39 C88.28948147 41.56147238 87.75539525 43.18869674 87.08203125 45.65625 C86.92356269 50.18392315 90.54124623 53.06460227 93.40625 56.265625 C94.2621875 57.16796875 95.118125 58.0703125 96 59 C112.8286351 76.89523873 124.68316103 97.84428369 133.18652344 120.80712891 C133.89858803 122.72662596 134.63843695 124.63576924 135.3828125 126.54296875 C138.53995514 135.07608505 139.76545753 142.77320817 136 151.3125 C132.65130547 157.26258153 128.30714861 160.89210324 121.84512609 163.05688465 C117.8878697 164.02750282 114.26143472 164.27676417 110.22017002 164.24609566 C109.46414357 164.24840335 108.70811712 164.25071103 107.92918077 164.25308865 C105.39943944 164.25837645 102.86995343 164.24941476 100.34022522 164.24050903 C98.50689667 164.24138135 96.67356835 164.24313281 94.84024137 164.24568737 C89.80512768 164.25015976 84.77009906 164.24215864 79.7349962 164.23213124 C74.30425735 164.22349753 68.87352333 164.22641685 63.44277954 164.22793579 C54.03454005 164.22898469 44.62632829 164.22270755 35.21809578 164.21146011 C21.61535937 164.19520878 8.01263637 164.18999748 -5.5901087 164.18748413 C-27.6594453 164.18310645 -49.72876713 164.16979537 -71.7980957 164.15087891 C-93.23689701 164.13250744 -114.67569435 164.11834149 -136.11450195 164.10986328 C-137.10592108 164.1094687 -137.10592108 164.1094687 -138.11736888 164.10906615 C-145.41354311 164.10616742 -152.70971739 164.10338375 -160.00589168 164.10064721 C-215.003938 164.07991245 -270.00196829 164.04468493 -325 164 C-325 163.67 -325 163.34 -325 163 C-182.44 163 -39.88 163 107 163 C107 145.2652302 102.19209112 130.40040442 96 114 C95.58427734 112.89374268 95.58427734 112.89374268 95.16015625 111.76513672 C84.57458611 83.96535294 68.50754438 59.4449906 48 38 C47.12601562 37.07316406 46.25203125 36.14632812 45.3515625 35.19140625 C35.058137 24.55084177 23.49946229 16.11548993 11.12866211 8.05883789 C7.25703249 5.53674528 3.54936677 2.97303395 0 0 Z " fill="#DD732B" transform="translate(359,34)"/>
<path d="M0 0 C3.80004279 2.54539683 6.81596443 5.97376987 9.98046875 9.24609375 C17.7175918 16.73078212 26.20867654 22.00214469 37.1875 21.9375 C37.89108643 21.94040039 38.59467285 21.94330078 39.31958008 21.94628906 C43.62974731 21.880946 46.70989116 21.16933115 50.5625 19.3125 C52.87890625 18.4609375 52.87890625 18.4609375 55.375 18.5625 C59.74948831 21.59221851 63.2937578 25.17579173 66.92529297 29.04443359 C68.7038067 30.90681123 70.59770017 32.58686641 72.5625 34.25 C75.68549871 36.95838218 78.78840303 39.6876227 81.875 42.4375 C82.7309375 43.19804687 83.586875 43.95859375 84.46875 44.7421875 C85.41234375 45.64324219 85.41234375 45.64324219 86.375 46.5625 C86.375 46.8925 86.375 47.2225 86.375 47.5625 C31.265 47.5625 -23.845 47.5625 -80.625 47.5625 C-80.625 36.3425 -80.625 25.1225 -80.625 13.5625 C-76.995 15.5425 -73.365 17.5225 -69.625 19.5625 C-61.10181863 22.97177255 -51.12725175 22.92922429 -42.4375 19.8125 C-36.20052512 16.85142598 -31.48719461 12.31024433 -26.6328125 7.5 C-18.76270647 -0.29319946 -11.11845006 -4.40904054 0 0 Z " fill="#8D2C29" transform="translate(123.625,324.4375)"/>
<path d="M0 0 C4.48690259 1.83843261 7.31222531 3.96833796 10 8 C5.52750285 12.5795516 0.97526475 16.98248681 -3.875 21.16015625 C-7.97377684 24.70891341 -11.97638177 28.36655081 -16 32 C-21.28259058 36.77033937 -26.57934135 41.51894407 -31.9453125 46.1953125 C-35.99969003 49.75638173 -39.9951293 53.3834804 -44 57 C-53.49384217 65.57322717 -53.49384217 65.57322717 -58.3125 69.75 C-61.34214547 72.3871408 -64.2029137 75.11815351 -67 78 C-67.33 78.33 -67.66 78.66 -68 79 C-67.690625 80.175625 -67.38125 81.35125 -67.0625 82.5625 C-66.61102399 85.62372755 -66.74564268 86.64314048 -68.5703125 89.203125 C-70.63745812 91.26264278 -72.73242069 93.16395284 -75 95 C-76.051875 95.88171875 -76.051875 95.88171875 -77.125 96.78125 C-78.053125 97.38453125 -78.053125 97.38453125 -79 98 C-81.3125 97.1875 -81.3125 97.1875 -84 96 C-87.60792106 95.73760574 -90.2842974 95.73369205 -93.6875 97 C-101.46125985 99.34679543 -109.22959208 98.66333548 -116.59765625 95.35546875 C-120.74874187 93.0133115 -124.39364745 90.10111476 -128 87 C-123.17403252 81.03104023 -117.7777766 76.03980514 -112 71 C-111.31679688 70.401875 -110.63359375 69.80375 -109.9296875 69.1875 C-108.6389869 68.05879016 -107.34731296 66.93119242 -106.0546875 65.8046875 C-102.00030997 62.24361827 -98.0048707 58.6165196 -94 55 C-84.51127959 46.43139793 -84.51127959 46.43139793 -80.0625 42.5625 C-76.78903731 39.71398987 -73.57856637 36.80187508 -70.375 33.875 C-69.43011719 33.02808594 -68.48523438 32.18117188 -67.51171875 31.30859375 C-65.09724225 29.16249766 -65.09724225 29.16249766 -63.45703125 27.28515625 C-59.30118252 22.87356298 -54.15305818 23.52318744 -48.51953125 23.26953125 C-36.34419617 22.3371249 -27.56740327 13.75326498 -19.42578125 5.33984375 C-13.44529893 -0.42876963 -8.0871891 -1.1403669 0 0 Z " fill="#FDB309" transform="translate(403,323)"/>
<path d="M0 0 C1.61286644 -0.038619 1.61286644 -0.038619 3.25831604 -0.07801819 C8.20513646 -0.16210379 13.15179975 -0.22810771 18.09912109 -0.27441406 C20.70548873 -0.30600345 23.31171376 -0.35370353 25.91748047 -0.41796875 C29.67462263 -0.50940838 33.42916742 -0.54806984 37.18725586 -0.57592773 C38.34588638 -0.61408096 39.50451691 -0.65223419 40.69825745 -0.69154358 C46.71646147 -0.67715528 50.16529439 -0.27590962 54.52099609 4.07666016 C55.6773967 5.45749835 56.82560829 6.84524546 57.96459961 8.24047852 C59.23348365 9.41149094 60.52258502 10.56137233 61.83959961 11.67797852 C67.4922836 16.54679422 73.00602203 21.56879331 78.54272461 26.56860352 C79.80342773 27.70555664 79.80342773 27.70555664 81.08959961 28.86547852 C82.31743164 29.97342773 82.31743164 29.97342773 83.57006836 31.10375977 C86.43345846 33.65885664 89.3427132 36.15725515 92.27319336 38.63500977 C94.09238567 40.36177198 95.48303387 42.2219068 96.96459961 44.24047852 C86.05479817 44.35665233 75.14514543 44.44533557 64.23484993 44.49953938 C59.16798072 44.52556294 54.10153668 44.56082798 49.03491211 44.61767578 C44.13951348 44.67225474 39.24452218 44.70195344 34.34884262 44.71486473 C32.48701445 44.72405834 30.62520699 44.742011 28.76355362 44.7691288 C17.09268963 44.93227398 8.29913989 44.74877441 -0.91040039 36.74047852 C-1.61165039 35.91547852 -2.31290039 35.09047852 -3.03540039 34.24047852 C-3.73665039 33.47735352 -4.43790039 32.71422852 -5.16040039 31.92797852 C-9.83941644 25.22138885 -11.11376188 18.35113358 -10.03540039 10.24047852 C-6.75748611 0.15572422 -6.75748611 0.15572422 0 0 Z " fill="#F52B2B" transform="translate(39.035400390625,212.759521484375)"/>
<path d="M0 0 C13.16094853 -0.06957872 26.32185314 -0.1228514 39.4829483 -0.15543652 C45.59449267 -0.17107748 51.70591098 -0.19228739 57.81738281 -0.22631836 C63.71774023 -0.25896733 69.61797656 -0.27686482 75.51841736 -0.28463173 C77.76702276 -0.29016526 80.0156217 -0.30097088 82.26417542 -0.31719017 C85.41910001 -0.33903767 88.57352729 -0.34196381 91.72851562 -0.34057617 C92.65352875 -0.351362 93.57854187 -0.36214783 94.53158569 -0.3732605 C100.97669333 -0.34268258 106.88360911 0.40701839 112.0234375 4.68359375 C112.46945312 5.26238281 112.91546875 5.84117187 113.375 6.4375 C114.06722656 7.30181641 114.06722656 7.30181641 114.7734375 8.18359375 C118.3343938 13.45698445 118.6421289 17.73374559 118 24 C117.1133103 27.84071573 115.85887292 31.49039192 114.5 35.1875 C114.1376123 36.19345215 113.77522461 37.1994043 113.40185547 38.23583984 C104.26387544 62.92934279 88.46656963 84.03729361 64.4140625 95.82421875 C42.71209733 105.50475827 42.71209733 105.50475827 36 103 C36.53367187 102.68289063 37.06734375 102.36578125 37.6171875 102.0390625 C63.20249488 86.01504646 75.90426467 55.8027369 84 28 C84.309375 26.95513428 84.309375 26.95513428 84.625 25.88916016 C87.01648726 17.61347124 87 10.89860454 87 2 C58.29 1.67 29.58 1.34 0 1 C0 0.67 0 0.34 0 0 Z " fill="#E4762C" transform="translate(372,387)"/>
<path d="M0 0 C1.13719482 0.08677002 1.13719482 0.08677002 2.29736328 0.17529297 C14.60729972 1.25132716 25.14107394 5.46201854 33.6875 14.75 C41.25762746 24.12167222 43.9224424 32.8375965 42.8125 44.875 C40.73925432 52.10174209 36.05720559 56.02997133 29.625 59.6875 C21.8687942 62.10336738 14.69289969 61.60677029 7.29296875 58.265625 C-4.98427318 51.38263582 -12.09886138 41.82562783 -15.875 28.4375 C-17.62172172 20.86837254 -18.89752136 12.4850451 -15.5 5.3125 C-10.67558732 0.22730826 -6.85368078 -0.57958926 0 0 Z " fill="#040201" transform="translate(320.1875,35.125)"/>
<path d="M0 0 C5.30403854 -0.29269778 8.2415965 0.68308718 12.3984375 4.24609375 C16.21367827 8.20667703 15.81993589 11.98007841 15.74487305 17.25244141 C15.39122638 28.98336626 11.83578497 39.89209927 3.96875 48.7734375 C-5.17353085 57.34716855 -13.7895947 60.95343417 -26.25390625 60.66015625 C-32.53787594 59.88290912 -36.34318528 56.84402921 -40.4765625 52.24609375 C-45.17629399 45.61117871 -45.71014747 39.20384326 -44.6015625 31.24609375 C-40.23737794 18.750465 -33.02662926 10.32130126 -21.09863281 4.48242188 C-14.18486752 1.36625489 -7.44276104 0.70404496 0 0 Z " fill="#030201" transform="translate(193.6015625,34.75390625)"/>
<path d="M0 0 C4.76446019 2.61858713 7.93018488 5.93088586 11.125 10.25 C11.55804443 10.82556641 11.99108887 11.40113281 12.43725586 11.99414062 C20.61037707 23.05928934 22.10922648 33.53036728 21 47 C19.44010415 55.24658314 15.36567424 61.5694602 9 67 C3.49082646 70.557407 -1.51637892 71.82331696 -8 71 C-17.39113246 67.57869524 -22.48431663 61.76523931 -26.98046875 53.11328125 C-30.89316569 43.76322142 -30.61410496 30.91521756 -27 21.5625 C-24.04589864 15.53713745 -20.28757597 10.14850077 -16 5 C-15.50628906 4.40703125 -15.01257813 3.8140625 -14.50390625 3.203125 C-10.47201615 -0.86303046 -5.35258763 -1.18311769 0 0 Z " fill="#040202" transform="translate(260,47)"/>
<path d="M0 0 C1.41792958 0.02510613 2.83590179 0.04791525 4.25390625 0.06835938 C7.71182988 0.12319176 11.16814188 0.20933389 14.625 0.3125 C10.43224031 4.52646943 6.14976743 8.62360691 1.8125 12.6875 C1.13896484 13.32171875 0.46542969 13.9559375 -0.22851562 14.609375 C-4.27334472 18.40261186 -8.38287559 22.10423231 -12.5690918 25.74072266 C-14.8628949 27.73714071 -17.12080582 29.77154041 -19.375 31.8125 C-22.33369751 34.48298344 -25.30426472 37.13548058 -28.3125 39.75 C-31.54059512 42.56072525 -34.71238443 45.428299 -37.875 48.3125 C-58.06844666 66.6929991 -58.06844666 66.6929991 -69.57421875 66.6015625 C-73.77811132 66.16768795 -75.99807738 64.82722961 -79.375 62.3125 C-80.035 61.3225 -80.695 60.3325 -81.375 59.3125 C-67.40268957 46.26251905 -67.40268957 46.26251905 -61.36328125 41.05078125 C-58.83447072 38.83993511 -56.35627436 36.57653557 -53.875 34.3125 C-50.11149479 30.87985239 -46.31370649 27.4969499 -42.46875 24.15625 C-39.91080973 21.90373543 -37.3932102 19.60932908 -34.875 17.3125 C-30.42381155 13.255331 -25.95125341 9.22845232 -21.375 5.3125 C-20.62605469 4.42820313 -19.87710938 3.54390625 -19.10546875 2.6328125 C-13.9890046 -1.6206336 -6.28284877 -0.19310542 0 0 Z " fill="#FDB309" transform="translate(258.375,212.6875)"/>
<path d="M0 0 C29.38517685 -0.09132149 58.7703436 -0.16207536 88.15563341 -0.20426132 C91.62768162 -0.20926393 95.09972955 -0.21444124 98.57177734 -0.21972656 C99.26297687 -0.2207758 99.95417639 -0.22182505 100.66632135 -0.22290608 C111.8467003 -0.24029417 123.02699667 -0.27182301 134.2073267 -0.30861118 C145.68604031 -0.34606515 157.16469593 -0.36794599 168.64346945 -0.37635398 C175.08814376 -0.3815655 181.53263101 -0.39380166 187.97724533 -0.42292023 C194.0461625 -0.45011851 200.11481597 -0.45843592 206.1837883 -0.45243073 C208.40815668 -0.45352897 210.63253409 -0.46145628 212.85684967 -0.4768219 C215.90149973 -0.49681847 218.94516321 -0.49190359 221.98983765 -0.48101807 C222.86340924 -0.49266943 223.73698083 -0.5043208 224.63702428 -0.51632524 C233.72887361 -0.4288806 241.62601511 2.65715437 248.23828125 8.9609375 C253.54299224 15.1007582 255.87049246 21.40895997 255.40234375 29.52734375 C254.7773915 33.36806969 253.73069155 35.20429198 251 38 C248.63472113 39.46568301 246.21632273 40.81062961 243.78515625 42.1640625 C240.57373688 44.28098691 238.01390766 46.79639947 235.375 49.5625 C229.05716639 56.06920266 224.87138713 60.18335992 215.5 60.625 C209.48749951 60.41501744 205.56817428 58.86431661 201 55 C205.16547039 50.49465252 209.60859923 47.59033869 214.91601562 44.5703125 C219.62840441 41.71740686 221.76079259 39.0711462 224 34 C225.74707758 22.69214352 222.67975185 13.88442056 216.3046875 4.75 C215.1163671 3.06828201 215.1163671 3.06828201 214 2 C211.24395983 1.88971179 208.51244165 1.84503152 205.75547791 1.84178162 C204.88074328 1.83684364 204.00600865 1.83190566 203.10476691 1.82681805 C200.15049442 1.8113633 197.19624378 1.80306097 194.24194336 1.79467773 C192.1334463 1.78510547 190.02495119 1.77509578 187.91645813 1.76467896 C182.17291126 1.7375532 176.4293561 1.71658531 170.68578029 1.69667697 C164.69061557 1.67486456 158.69547661 1.64745274 152.70033264 1.62062073 C141.33893769 1.57062947 129.97752851 1.52571459 118.61610562 1.48259836 C105.68523526 1.43328084 92.75439074 1.37834244 79.82354534 1.32291877 C53.21572097 1.20900001 26.60787184 1.10218263 0 1 C0 0.67 0 0.34 0 0 Z " fill="#6CAE00" transform="translate(229,272)"/>
<path d="M0 0 C0 11.22 0 22.44 0 34 C-26.07 34 -52.14 34 -79 34 C-77.35 32.35 -75.7 30.7 -74 29 C-73.35417969 28.34257812 -72.70835937 27.68515625 -72.04296875 27.0078125 C-68.2121226 23.12051177 -64.29079534 19.42011893 -60.1484375 15.8671875 C-56.79919768 12.95639362 -53.55391792 9.93125209 -50.296875 6.91796875 C-46.48387236 3.73398185 -46.48387236 3.73398185 -44 3 C-41.80078125 3.8984375 -41.80078125 3.8984375 -39.3125 5.375 C-31.88938843 8.97739238 -24.08624847 9.40655575 -16 8 C-11.68058887 6.48012165 -4.15688627 0 0 0 Z " fill="#761E1E" transform="translate(469,338)"/>
<path d="M0 0 C4.27060618 -0.11589162 8.54080984 -0.18714802 12.8125 -0.25 C14.02744141 -0.28351563 15.24238281 -0.31703125 16.49414062 -0.3515625 C18.23920898 -0.37089844 18.23920898 -0.37089844 20.01953125 -0.390625 C21.62985229 -0.4220459 21.62985229 -0.4220459 23.27270508 -0.45410156 C26 0 26 0 27.79956055 1.86425781 C31.25817768 8.01759982 31.7813415 14.06438843 31 21 C30.04569085 24.25496795 28.69352588 27.06825684 27 30 C26.63777344 30.639375 26.27554687 31.27875 25.90234375 31.9375 C22.25691932 37.67132012 17.26212477 40.44307681 11.25 43.3125 C6.19104929 44.38266265 1.15050732 44.15001478 -4 44 C-3.6390625 43.16082031 -3.278125 42.32164062 -2.90625 41.45703125 C2.33855449 27.86424627 2.02087103 14.29517785 0 0 Z " fill="#E02828" transform="translate(452,213)"/>
<path d="M0 0 C3.3 1.65 6.6 3.3 10 5 C10 13.58 10 22.16 10 31 C-4.52 31 -19.04 31 -34 31 C-32.35 29.35 -30.7 27.7 -29 26 C-28.35417969 25.34257812 -27.70835937 24.68515625 -27.04296875 24.0078125 C-23.21283625 20.12123594 -19.29035078 16.42341532 -15.15234375 12.8671875 C-11.78158655 9.94300975 -8.49605465 6.92497292 -5.19921875 3.91796875 C-3 2 -3 2 0 0 Z " fill="#8C2C29" transform="translate(424,341)"/>
<path d="M0 0 C8.76334577 0.7966678 16.17289567 2.14643582 23 8 C27.37006893 13.30651227 30.40082235 18.01727075 30.2734375 25.0234375 C30 27 30 27 28.4375 29.5 C24.89001973 31.68306478 23.13739343 31.66732152 19 31 C12.03529916 27.97570835 6.53172725 23.7953696 3 17 C0.85849047 11.27573687 -0.16147398 6.11806952 0 0 Z " fill="#F4EBEA" transform="translate(318,50)"/>
<path d="M0 0 C-0.16254298 9.69347227 -1.06633329 15.97663026 -7.93359375 22.96875 C-12.71735494 27.38174709 -16.52210049 30.00036293 -23.125 30.3125 C-27 30 -27 30 -28.70703125 28.73828125 C-30.73779938 26.00809448 -30.59675716 23.79100673 -30.47265625 20.47265625 C-29.09354068 13.25794423 -23.72112415 8.14678669 -17.8671875 4.1484375 C-12.33377679 0.74504263 -6.43490446 0 0 0 Z " fill="#F4EAEA" transform="translate(194,50)"/>
<path d="M0 0 C0.99 0 1.98 0 3 0 C4.75390625 2.01171875 4.75390625 2.01171875 6.5625 4.6875 C7.16191406 5.55761719 7.76132812 6.42773438 8.37890625 7.32421875 C12.76380099 14.56193658 12.87324759 21.75654272 12 30 C10.25336326 34.62186952 8.09045838 37.27302775 4 40 C1.625 40 1.625 40 -1 39 C-7.02807883 32.69154541 -8.42060556 28.50164395 -8.44262695 19.86401367 C-8.2818934 13.63162663 -6.44824088 9.09951116 -3 4 C-2.51144531 3.25105469 -2.02289063 2.50210938 -1.51953125 1.73046875 C-1.01808594 1.15941406 -0.51664063 0.58835938 0 0 Z " fill="#F6ECEC" transform="translate(254,63)"/>
<path d="M0 0 C0.99 0 1.98 0 3 0 C4.75390625 2.01171875 4.75390625 2.01171875 6.5625 4.6875 C7.16191406 5.55761719 7.76132812 6.42773438 8.37890625 7.32421875 C12.76380099 14.56193658 12.87324759 21.75654272 12 30 C10.25336326 34.62186952 8.09045838 37.27302775 4 40 C1.8125 39.625 1.8125 39.625 0 39 C1.485 38.505 1.485 38.505 3 38 C7.24702434 30.13514012 7.51032396 20.34170854 5.09765625 11.80859375 C4.16274807 9.46965977 3.17390765 7.22728015 2 5 C-0.9254644 4.7763932 -0.9254644 4.7763932 -3 6 C-2 4 -1 2 0 0 Z " fill="#E4D8D4" transform="translate(254,63)"/>
<path d="M0 0 C8.76334577 0.7966678 16.17289567 2.14643582 23 8 C26.68713447 12.47723472 30.13310529 17.08185519 30.1875 23 C30.20167969 23.70125 30.21585937 24.4025 30.23046875 25.125 C30 27 30 27 28 29 C27.75765625 28.33613281 27.5153125 27.67226562 27.265625 26.98828125 C25.36952344 21.9927829 23.55690519 18.06503451 20 14 C20 13.34 20 12.68 20 12 C19.484375 11.7525 18.96875 11.505 18.4375 11.25 C16.5036889 10.258302 14.61672128 9.17535307 12.75 8.0625 C8.97939502 5.8786572 5.10707508 4.44107898 1 3 C0.67 3.99 0.34 4.98 0 6 C0 4.02 0 2.04 0 0 Z " fill="#E5D8D4" transform="translate(318,50)"/>
<path d="M0 0 C0.66 0 1.32 0 2 0 C1.83745702 9.69347227 0.93366671 15.97663026 -5.93359375 22.96875 C-12.21569078 28.76395482 -16.54432437 30.28663307 -25 30 C-25.33 29.34 -25.66 28.68 -26 28 C-25.07380859 27.70609375 -25.07380859 27.70609375 -24.12890625 27.40625 C-15.15823724 24.23852517 -8.48184113 19.45524126 -4.0625 10.875 C-2.47300933 7.32331051 -1.08312036 3.74168852 0 0 Z " fill="#E8DCD7" transform="translate(192,50)"/>
</svg>
