<?xml version="1.0" encoding="UTF-8"?>
<svg version="1.1" xmlns="http://www.w3.org/2000/svg" width="512" height="512">
<path d="M0 0 C0.86757935 0.00304138 1.73515869 0.00608276 2.62902832 0.00921631 C55.06611222 0.27983294 102.87921667 22.01609508 139.76904297 58.89355469 C162.77644488 82.35363934 178.48863859 112.3876724 187.0625 143.9375 C187.24901123 144.61079346 187.43552246 145.28408691 187.62768555 145.9777832 C191.52398674 161.12773495 192.84063083 176.28252068 192.6875 191.875 C192.68284729 192.72634521 192.67819458 193.57769043 192.67340088 194.45483398 C192.59321673 206.99410817 192.17476439 219.18093928 189.3125 231.4375 C189.01448486 232.76346191 189.01448486 232.76346191 188.71044922 234.11621094 C176.85663901 285.84677144 149.3986589 332.15704119 115.765625 372.68017578 C113.67634079 375.20683367 111.62278732 377.76217907 109.5625 380.3125 C105.97845119 384.69081604 102.24849748 388.91223887 98.4375 393.09375 C96.48755276 395.24442711 94.58223871 397.42574971 92.6875 399.625 C89.93598308 402.78861047 87.03275183 405.73879787 84.04296875 408.67578125 C82.31798519 410.43191576 80.72067536 412.25114395 79.125 414.125 C72.38420104 421.92853754 64.95295115 429.18078593 57.10546875 435.86328125 C55.25820371 437.4851719 53.53493286 439.18410205 51.8125 440.9375 C48.14969951 444.6494656 44.27185108 448.04650738 40.3125 451.4375 C39.23417305 452.36825566 38.15606534 453.29926537 37.078125 454.23046875 C29.91281742 460.41002537 22.71786475 466.54587893 15.3125 472.4375 C14.3740625 473.20707031 13.435625 473.97664063 12.46875 474.76953125 C11.5303125 475.50558594 10.591875 476.24164063 9.625 477 C8.79613281 477.66128906 7.96726562 478.32257813 7.11328125 479.00390625 C3.45814995 480.8748033 0.29229957 481.22602926 -3.6875 480.4375 C-6.13442106 479.0236578 -7.91060905 477.81012408 -10 476 C-10.55631104 475.5447998 -11.11262207 475.08959961 -11.68579102 474.62060547 C-12.82431832 473.68608797 -13.95617057 472.74337642 -15.08105469 471.79248047 C-17.39523756 469.84054811 -19.76545371 467.95918544 -22.125 466.0625 C-23.98383869 464.52646977 -25.8377317 462.98444129 -27.6875 461.4375 C-28.21424316 460.99712402 -28.74098633 460.55674805 -29.28369141 460.10302734 C-38.08036864 452.72326456 -46.52156076 445.01503909 -54.87353516 437.13818359 C-57.16662035 434.98830049 -59.48420947 432.86614393 -61.80395508 430.74511719 C-70.30109277 422.96803286 -78.59081461 415.03647431 -86.078125 406.265625 C-87.71336434 404.40812012 -89.42231793 402.67143991 -91.1875 400.9375 C-94.89963453 397.27464159 -98.3013765 393.40125633 -101.6875 389.4375 C-102.48929687 388.51324219 -103.29109375 387.58898437 -104.1171875 386.63671875 C-111.10941985 378.52800355 -117.64371054 370.11018454 -124.08203125 361.55761719 C-125.60239439 359.54988703 -127.14128056 357.55816322 -128.6875 355.5703125 C-140.39879441 340.41051981 -150.57741448 324.12395768 -159.68603516 307.28027344 C-160.68560577 305.44098554 -161.70609474 303.61463109 -162.73046875 301.7890625 C-179.11939481 272.28268153 -191.57564239 236.95688015 -191.92578125 202.96875 C-191.9355751 202.17918411 -191.94536896 201.38961823 -191.95545959 200.5761261 C-192.49886248 145.37525237 -174.96065257 95.91345025 -136.19042969 55.96044922 C-112.02017776 31.46824137 -81.28254713 14.68128441 -48.1875 5.6875 C-47.51420654 5.50098877 -46.84091309 5.31447754 -46.1472168 5.12231445 C-30.92781647 1.20815231 -15.66514715 -0.11753584 0 0 Z M-90.6875 81.4375 C-91.52667969 82.16839844 -92.36585938 82.89929688 -93.23046875 83.65234375 C-95.7487936 85.88111839 -98.22581652 88.14642825 -100.6875 90.4375 C-101.36554688 91.06140625 -102.04359375 91.6853125 -102.7421875 92.328125 C-129.72180687 118.11587363 -142.32895776 154.85436262 -143.6875 191.4375 C-144.37098654 230.11208665 -127.8221334 265.41981505 -102 293.34375 C-75.68237568 320.57943099 -38.98017365 335.7344071 -1.21044922 336.44433594 C37.81632589 336.33859279 74.76858494 320.99073934 102.3125 293.4375 C119.30420228 276.2149628 131.88340959 255.07869992 138.625 231.8125 C138.98875732 230.56134399 138.98875732 230.56134399 139.35986328 229.28491211 C142.69690762 217.15481489 143.69272131 205.23894973 143.625 192.6875 C143.62317719 191.98406464 143.62135437 191.28062927 143.61947632 190.55587769 C143.57301679 179.89485355 143.01727003 169.80035384 140.3125 159.4375 C140.14089355 158.75268555 139.96928711 158.06787109 139.79248047 157.36230469 C133.7219092 133.45976937 122.18630044 112.42534262 105.3125 94.4375 C104.85375488 93.94169434 104.39500977 93.44588867 103.92236328 92.93505859 C77.59410285 64.69167083 41.45229118 50.42459286 3.3125 48.4375 C-30.12929363 47.47953195 -65.51869216 59.22461432 -90.6875 81.4375 Z " fill="#000000" transform="translate(255.6875,15.5625)"/>
<path d="M0 0 C0.95003906 -0.01611328 1.90007812 -0.03222656 2.87890625 -0.04882812 C8.64397119 -0.05282609 12.82360705 0.45183052 17.875 3.3125 C20.28332094 6.92498141 20.59860855 8.05124968 19.875 12.3125 C14.66351328 19.56875741 7.54746602 25.63957694 1.10742188 31.77734375 C-4.60065795 37.35709872 -7.0642963 41.02588864 -7.390625 49.09765625 C-7.39589575 50.85677065 -7.39044159 52.61594548 -7.375 54.375 C-7.38273437 55.25994141 -7.39046875 56.14488281 -7.3984375 57.05664062 C-7.4787656 63.47894339 -7.4787656 63.47894339 -5.125 69.3125 C-0.62421114 72.24779708 5.05974109 71.68029131 10.25 71.6875 C11.17039062 71.71199219 12.09078125 71.73648438 13.0390625 71.76171875 C22.43472687 71.80198588 26.74616386 68.54692392 33.30078125 62.14453125 C35.2774379 60.15188681 37.23340042 58.13973635 39.1875 56.125 C40.6867972 54.59058369 42.18826495 53.05837834 43.69242859 51.5287323 C45.04578464 50.15075577 46.39281496 48.76657496 47.73950195 47.38208008 C50.24996445 44.94910985 51.23103498 44.398362 54.6875 43.9375 C58.95555764 44.43962443 60.2429276 46.00360898 62.875 49.3125 C67.33083106 62.68696632 64.24611287 80.60446018 58.31103516 92.91625977 C50.35311151 108.52663175 38.13005695 118.99108897 21.875 125.3125 C21.09382813 125.63347656 20.31265625 125.95445312 19.5078125 126.28515625 C4.44260406 131.45930931 -13.79626956 129.39764062 -28.06640625 122.9921875 C-45.53685693 114.09902345 -56.75630609 99.67118602 -63.0625 81.3125 C-67.28709788 63.4899777 -64.15198524 45.14478653 -55.16796875 29.41796875 C-45.57278991 14.83256306 -30.80894076 4.23819621 -13.59887695 0.68530273 C-9.07143769 0.0030369 -4.570456 -0.01563083 0 0 Z " fill="#000000" transform="translate(288.125,103.6875)"/>
<path d="M0 0 C0.44988281 0.93199219 0.89976562 1.86398438 1.36328125 2.82421875 C10.69188818 21.56308884 23.62776325 34.51906686 43 43 C41.49869535 46.4904884 39.48589054 48.7886218 36.83251953 51.48974609 C35.97046906 52.37101166 35.10841858 53.25227722 34.22024536 54.1602478 C33.27499594 55.11520052 32.32916972 56.06958259 31.3828125 57.0234375 C30.90315914 57.50874561 30.42350578 57.99405373 29.92931747 58.49406815 C27.38574469 61.06759473 24.83648709 63.63532438 22.28222656 66.19824219 C19.66863542 68.82273464 17.07408056 71.4652056 14.48376656 74.1126461 C12.46913568 76.16490365 10.44084204 78.20325457 8.40884018 80.23830032 C6.98601007 81.66998661 5.57738049 83.11574188 4.16921997 84.56185913 C-2.57492034 91.26069849 -10.52913611 97.74397999 -20.35546875 98.7265625 C-31.47117326 98.43195667 -38.90287347 96.64104558 -47.20703125 88.93359375 C-53.31749239 82.34388075 -55.1923979 76.35748273 -55.4375 67.5 C-55.49808594 66.1903125 -55.55867187 64.880625 -55.62109375 63.53125 C-54.80656462 51.87371764 -46.11157989 43.25097992 -38.203125 35.546875 C-37.1615685 34.51145143 -36.12120496 33.47482661 -35.08197021 32.43707275 C-32.92254206 30.28676309 -30.75378921 28.14654399 -28.57666016 26.01416016 C-25.78288341 23.2775146 -23.00728915 20.52327834 -20.23750687 17.76237106 C-18.09901471 15.632167 -15.95492214 13.50768297 -13.80867767 11.38529205 C-12.78227212 10.37028475 -11.75680011 9.35433252 -10.73227692 8.33742523 C-9.30883522 6.92766677 -7.87775212 5.52563632 -6.44628906 4.12402344 C-5.63387756 3.32526794 -4.82146606 2.52651245 -3.98443604 1.70355225 C-2 0 -2 0 0 0 Z " fill="#000000" transform="translate(215,198)"/>
</svg>
