<svg version="1.1" xmlns="http://www.w3.org/2000/svg" width="96px" height="96px" transform="rotate(0) scale(1, 1)">
<path d="M0 0 C1.32 0 2.64 0 4 0 C4 1.98 4 3.96 4 6 C4.6705542 5.97381592 5.3411084 5.94763184 6.03198242 5.9206543 C9.08358128 5.81642762 12.13480542 5.75159377 15.1875 5.6875 C16.24259766 5.64560547 17.29769531 5.60371094 18.38476562 5.56054688 C26.13411784 5.43831734 26.13411784 5.43831734 30.11328125 8.01953125 C34.82508974 15.46282292 34.30806926 23.46381892 34.25 32 C34.26160156 33.70542969 34.26160156 33.70542969 34.2734375 35.4453125 C34.24092084 49.45999462 34.24092084 49.45999462 30.11328125 55.98046875 C25.31208486 59.09492111 20.77325334 58.53429228 15.1875 58.3125 C14.11306641 58.28994141 13.03863281 58.26738281 11.93164062 58.24414062 C9.2863315 58.18535598 6.64388587 58.10323957 4 58 C4 59.98 4 61.96 4 64 C2.68 64 1.36 64 0 64 C0 62.02 0 60.04 0 58 C-0.6072139 58.00666183 -1.2144278 58.01332367 -1.84004211 58.02018738 C-8.1500622 58.08646887 -14.45998368 58.13177064 -20.77026367 58.16479492 C-23.12642431 58.17989747 -25.48255677 58.20038091 -27.83862305 58.22631836 C-31.22191312 58.26263656 -34.60483208 58.27971167 -37.98828125 58.29296875 C-39.57277824 58.31619453 -39.57277824 58.31619453 -41.18928528 58.33988953 C-42.66047066 58.34022942 -42.66047066 58.34022942 -44.16137695 58.34057617 C-45.02519485 58.34723801 -45.88901276 58.35389984 -46.77900696 58.36076355 C-49.51693455 57.91603254 -50.34505706 57.19124072 -52 55 C-54.66638452 47.5626599 -54.33161215 39.94569378 -54.3125 32.125 C-54.32861328 30.81402344 -54.34472656 29.50304687 -54.36132812 28.15234375 C-54.36499858 20.83346021 -54.2225775 13.72220495 -51 7 C-48.56032503 5.78016252 -47.00095476 5.87948473 -44.27490234 5.88647461 C-43.29403656 5.88655014 -42.31317078 5.88662567 -41.30258179 5.88670349 C-40.24108917 5.89186478 -39.17959656 5.89702606 -38.0859375 5.90234375 C-37.00116119 5.9037587 -35.91638489 5.90517365 -34.79873657 5.90663147 C-31.32413 5.91224198 -27.84958719 5.92479628 -24.375 5.9375 C-22.02343843 5.94251365 -19.67187585 5.94707679 -17.3203125 5.95117188 C-11.54685314 5.96221482 -5.77343112 5.97896321 0 6 C0 4.02 0 2.04 0 0 Z " fill="#40fff2" transform="translate(60,18)"/>
<path d="M0 0 C0.66 0.33 1.32 0.66 2 1 C3.07544633 6.27448198 3.19203255 11.50505629 3.1875 16.875 C3.18814453 17.66567871 3.18878906 18.45635742 3.18945312 19.27099609 C3.13957646 24.77216532 2.56998411 29.70130362 1 35 C-2.83155779 33.37895632 -6.45635247 31.33736798 -9 28 C-9.95424766 24.71347854 -9.99741452 21.59389004 -9.9375 18.1875 C-9.93363281 17.2912793 -9.92976563 16.39505859 -9.92578125 15.47167969 C-9.73470168 11.12939643 -9.39306187 8.59905961 -6.97265625 4.91015625 C-4.73614523 2.95630065 -2.61834129 1.39229259 0 0 Z " fill="#000000" transform="translate(67,32)"/>
<path d="M0 0 C1.14626322 0.97866338 2.29199788 1.95794587 3.4375 2.9375 C4.07558594 3.48277344 4.71367187 4.02804688 5.37109375 4.58984375 C7.98262208 6.85066324 7.98262208 6.85066324 8.22460938 8.93017578 C8.35400123 11.66172262 8.43403677 14.39119042 8.5 17.125 C8.55414063 18.0634375 8.60828125 19.001875 8.6640625 19.96875 C8.79949314 26.87571277 8.79949314 26.87571277 6.40625 30.24121094 C4.68019299 31.96813793 2.94353458 33.52479456 1 35 C-3.44676839 30.55323161 -2.18362288 22.95959302 -2.1875 17.0625 C-2.19974609 16.08603516 -2.21199219 15.10957031 -2.22460938 14.10351562 C-2.23499056 8.99943399 -2.04438866 4.77562726 0 0 Z " fill="#000000" transform="translate(18,32)"/>
<path d="M0 0 C1.28596069 -0.00060425 1.28596069 -0.00060425 2.59790039 -0.0012207 C3.54729492 -0.00444336 4.49668945 -0.00766602 5.47485352 -0.01098633 C6.45518555 0.01672852 7.43551758 0.04444336 8.44555664 0.07299805 C9.42202148 0.05817383 10.39848633 0.04334961 11.40454102 0.02807617 C16.07867432 0.08194754 19.48695974 0.21931395 23.19946289 3.2409668 C25.50805664 5.76049805 25.50805664 5.76049805 25.50805664 6.76049805 C14.61805664 6.76049805 3.72805664 6.76049805 -7.49194336 6.76049805 C-2.49194336 0.76049805 -2.49194336 0.76049805 0 0 Z " fill="#000000" transform="translate(33.491943359375,65.239501953125)"/>
<path d="M0 0 C10.89 0 21.78 0 33 0 C26.41082686 6.58917314 25.18613519 6.27348233 16.25 6.4375 C15.24710938 6.48326172 14.24421875 6.52902344 13.2109375 6.57617188 C12.23898438 6.59099609 11.26703125 6.60582031 10.265625 6.62109375 C8.93192871 6.65867798 8.93192871 6.65867798 7.57128906 6.69702148 C5 6 5 6 0 0 Z " fill="#000000" transform="translate(26,28)"/>
</svg>