<svg version="1.1" xmlns="http://www.w3.org/2000/svg" width="512px" height="512px" transform="rotate(0) scale(1, 1)">
<path d="M0 0 C0.96596659 -0.00679667 0.96596659 -0.00679667 1.95144767 -0.01373065 C4.09536619 -0.02632535 6.23902907 -0.02475752 8.38298035 -0.02310181 C9.92589645 -0.02909017 11.46880955 -0.03589643 13.01171875 -0.04345703 C17.19366865 -0.0610934 21.37553665 -0.06581143 25.55752015 -0.0670886 C28.173128 -0.06851215 30.78871516 -0.07278563 33.40431786 -0.07808304 C42.53751823 -0.09657583 51.67066031 -0.10475463 60.80387878 -0.10317993 C69.30404015 -0.10197889 77.80394745 -0.1230758 86.30404454 -0.15466726 C93.61296268 -0.1808591 100.92179798 -0.191546 108.23076266 -0.19026911 C112.5911358 -0.18976031 116.95128307 -0.1953979 121.31160927 -0.21662521 C125.41491662 -0.23605664 129.5177838 -0.23609887 133.6211071 -0.22159195 C135.12185436 -0.21950877 136.62262954 -0.22417536 138.12332916 -0.23631287 C155.47630939 -0.36750408 155.47630939 -0.36750408 162.20820332 6.04677773 C167.1307618 11.44153563 168.63924001 15.63296831 168.60080624 22.95249557 C168.60461191 23.73474282 168.60841758 24.51699007 168.61233857 25.32294178 C168.62269452 27.95999988 168.61874083 30.59684432 168.61489868 33.23391724 C168.61934892 35.13732783 168.62466225 37.04073657 168.63076741 38.94414258 C168.64498362 44.18720157 168.64661001 49.43020139 168.6461705 54.6732769 C168.64781552 60.32305001 168.66087612 65.97279851 168.67236328 71.62255859 C168.69523679 83.9819685 168.70313639 96.34136125 168.70818973 108.70078945 C168.71144396 116.41503341 168.71796477 124.12927236 168.72519112 131.84351349 C168.74475997 153.19347937 168.76124384 174.54343878 168.76406765 195.89341354 C168.76416171 196.57642917 168.76425577 197.2594448 168.76435268 197.96315787 C168.76473117 200.73116677 168.76509516 203.49917568 168.76545566 206.26718458 C168.76572738 208.35059823 168.76600406 210.43401188 168.76628113 212.51742554 C168.76641316 213.5500851 168.76641316 213.5500851 168.76654786 214.60360647 C168.76945326 236.23442489 168.79154796 257.86515396 168.82780457 279.49594116 C168.8685275 303.79203204 168.8922066 328.08804252 168.89252716 352.38417363 C168.89311237 365.25060719 168.9016452 378.11692575 168.93052483 390.98332977 C168.95500048 401.9382358 168.96234737 412.89298489 168.9472773 423.84791085 C168.94009287 429.43878025 168.94103206 435.0293395 168.9636879 440.62017441 C168.98422714 445.73765486 168.98172464 450.85458571 168.96081305 455.97205988 C168.95730849 457.82402603 168.96226889 459.67603143 168.97651749 461.52794608 C169.10523077 479.40849067 169.10523077 479.40849067 163.34074402 485.26742554 C162.86466389 485.76036378 162.38858375 486.25330202 161.89807695 486.76117778 C156.78047178 491.48992071 151.4568861 492.51506842 144.68148804 492.53485107 C144.03751031 492.53938219 143.39353258 492.5439133 142.73004037 492.54858172 C140.58612185 492.56117643 138.44245896 492.55960859 136.29850769 492.55795288 C134.75559159 492.56394124 133.21267848 492.5707475 131.66976929 492.57830811 C127.48781939 492.59594447 123.30595138 492.6006625 119.12396789 492.60193968 C116.50836004 492.60336323 113.89277288 492.6076367 111.27717018 492.61293411 C102.1439698 492.63142691 93.01082773 492.63960571 83.87760925 492.63803101 C75.37744789 492.63682996 66.87754059 492.65792687 58.37744349 492.68951833 C51.06852536 492.71571017 43.75969006 492.72639708 36.45072538 492.72512019 C32.09035224 492.72461139 27.73020496 492.73024898 23.36987877 492.75147629 C19.26657142 492.77090771 15.16370424 492.77094995 11.06038094 492.75644302 C9.55963367 492.75435985 8.0588585 492.75902643 6.55815887 492.77116394 C-10.79482135 492.90235515 -10.79482135 492.90235515 -17.52671528 486.48807335 C-22.44927376 481.09331545 -23.95775198 476.90188276 -23.9193182 469.5823555 C-23.92312387 468.80010825 -23.92692954 468.017861 -23.93085054 467.21190929 C-23.94120648 464.5748512 -23.93725279 461.93800675 -23.93341064 459.30093384 C-23.93786088 457.39752324 -23.94317421 455.4941145 -23.94927937 453.59070849 C-23.96349558 448.3476495 -23.96512198 443.10464968 -23.96468246 437.86157417 C-23.96632748 432.21180106 -23.97938808 426.56205256 -23.99087524 420.91229248 C-24.01374875 408.55288258 -24.02164836 396.19348982 -24.02670169 383.83406162 C-24.02995593 376.11981767 -24.03647674 368.40557871 -24.04370308 360.69133759 C-24.06327194 339.3413717 -24.0797558 317.99141229 -24.08257961 296.64143753 C-24.08267367 295.9584219 -24.08276773 295.27540627 -24.08286465 294.5716932 C-24.08324313 291.8036843 -24.08360713 289.0356754 -24.08396763 286.2676665 C-24.08423935 284.18425284 -24.08451602 282.10083919 -24.08479309 280.01742554 C-24.08488111 279.32898583 -24.08496914 278.64054612 -24.08505983 277.93124461 C-24.08796522 256.30042618 -24.11005992 234.66969712 -24.14631653 213.03890991 C-24.18703946 188.74281903 -24.21071856 164.44680856 -24.21103913 140.15067744 C-24.21162433 127.28424388 -24.22015716 114.41792532 -24.24903679 101.5515213 C-24.27351244 90.59661527 -24.28085933 79.64186618 -24.26578926 68.68694022 C-24.25860483 63.09607082 -24.25954402 57.50551158 -24.28219986 51.91467667 C-24.3027391 46.79719622 -24.3002366 41.68026537 -24.27932502 36.5627912 C-24.27582045 34.71082505 -24.28078085 32.85881964 -24.29502945 31.00690499 C-24.42374274 13.12636041 -24.42374274 13.12636041 -18.65925598 7.26742554 C-17.94513578 6.52801818 -17.94513578 6.52801818 -17.21658891 5.7736733 C-12.09898374 1.04493036 -6.77539806 0.01978265 0 0 Z " fill="#919090" transform="translate(183.6592559814453,9.732574462890625)"/>
<path d="M0 0 C0.11443589 41.52165716 0.20254406 83.04329614 0.25532665 124.56507975 C0.26158021 129.4667266 0.26805181 134.36837314 0.2746582 139.27001953 C0.27662553 140.73376835 0.27662553 140.73376835 0.2786326 142.22708786 C0.30039116 158.02915554 0.33981518 173.83113231 0.38576398 189.63314605 C0.43251607 205.84659693 0.46029276 222.06000018 0.47044247 238.2735157 C0.47730422 248.2787483 0.49897892 258.28372393 0.53958233 268.28887743 C0.56600529 275.1491171 0.574002 282.00922385 0.56750689 288.86951071 C0.56430328 292.82804895 0.56922552 296.78613803 0.59602737 300.74459648 C0.62040045 304.37084883 0.62156213 307.99635098 0.60449447 311.62263823 C0.60138914 313.55138486 0.62291819 315.48012297 0.64540654 317.408741 C0.57534875 325.53678646 -0.80791396 330.6017631 -6.44271964 336.51366711 C-11.59461987 341.20562817 -16.87269142 342.24761028 -23.65925598 342.26742554 C-24.30323371 342.27195665 -24.94721144 342.27648776 -25.61070365 342.28115618 C-27.75462217 342.29375089 -29.89828505 342.29218306 -32.04223633 342.29052734 C-33.58515243 342.29651571 -35.12806554 342.30332196 -36.67097473 342.31088257 C-40.85292463 342.32851894 -45.03479264 342.33323696 -49.21677613 342.33451414 C-51.83238398 342.33593769 -54.44797114 342.34021117 -57.06357384 342.34550858 C-66.19677421 342.36400137 -75.32991629 342.37218017 -84.46313477 342.37060547 C-92.96329613 342.36940443 -101.46320343 342.39050133 -109.96330053 342.4220928 C-117.27221866 342.44828463 -124.58105396 342.45897154 -131.89001864 342.45769465 C-136.25039178 342.45718585 -140.61053905 342.46282344 -144.97086525 342.48405075 C-149.0741726 342.50348217 -153.17703978 342.50352441 -157.28036308 342.48901749 C-158.78111035 342.48693431 -160.28188552 342.4916009 -161.78258514 342.5037384 C-179.13556537 342.63492962 -179.13556537 342.63492962 -185.8674593 336.22064781 C-189.94365414 331.7534415 -192.14887295 327.82967532 -192.62406921 321.73945618 C-192.70933617 320.67210739 -192.79460312 319.60475861 -192.88245392 318.50506592 C-192.96466942 317.33719543 -193.04688492 316.16932495 -193.1315918 314.96606445 C-193.22215096 313.72964706 -193.31271011 312.49322968 -193.40601349 311.21934509 C-194.54245975 294.93274577 -195.224551 278.63102682 -195.6875 262.3125 C-195.7107497 261.53126518 -195.7339994 260.75003036 -195.75795364 259.94512177 C-197.81244528 189.57341487 -197.81244528 189.57341487 -175.51799011 165.01179504 C-171.7305378 161.07367564 -167.70366888 157.48597484 -163.5 154 C-162.81853786 153.43455601 -162.13707573 152.86911201 -161.43496323 152.28653336 C-153.07135893 145.45031828 -144.35516594 139.39873343 -135 134 C-131.82195474 135.54821407 -128.98996079 137.3271093 -126.0625 139.3125 C-112.49885213 147.82093003 -98.63708419 150.88280191 -82.72021484 147.51806641 C-69.59743885 143.78759364 -58.38853589 135.40185426 -51 124 C-49.08845972 120.41586197 -47.44799323 116.79396675 -46 113 C-45.63519531 112.11957031 -45.27039063 111.23914063 -44.89453125 110.33203125 C-41.56020025 97.91201229 -42.78228097 83.22901497 -49 72 C-50.7394182 69.0512009 -52.52764776 66.17320231 -54.44921875 63.33984375 C-55.82049293 61.27084315 -56.91555101 59.22606683 -58 57 C-50.58831976 49.56520004 -43.17397852 42.13306533 -35.75618076 34.70436859 C-32.31228316 31.25524135 -28.86932643 27.8051855 -25.4284668 24.35302734 C-22.11090116 21.02463571 -18.79093383 17.6986576 -15.46925163 14.37437439 C-14.19925128 13.10251926 -12.93013467 11.82978107 -11.66189766 10.5561676 C-9.89221103 8.77927436 -8.1194731 7.005482 -6.34594727 5.23242188 C-5.81655045 4.69942978 -5.28715363 4.16643768 -4.74171448 3.61729431 C-1.11405216 0 -1.11405216 0 0 0 Z " fill="#919090" transform="translate(352,160)"/>
<path d="M0 0 C12.42451966 8.47511573 21.1890558 20.53882492 24.98828125 35.203125 C26.90274572 52.76861752 24.1165588 66.76287007 13.03515625 80.84375 C5.205769 89.86846354 -7.14008359 98.21160085 -19.33300781 99.4362793 C-37.30919731 100.38265901 -50.86976247 97.30972445 -65.0390625 85.515625 C-75.41335128 75.70885749 -81.05332176 63.28453571 -81.60595703 49.078125 C-81.78466408 32.3761072 -77.27480055 20.07541454 -65.6953125 7.734375 C-48.13304985 -9.17952161 -20.98065802 -12.51764291 0 0 Z " fill="#000000" transform="translate(284.01171875,209.796875)"/>
<path d="M0 0 C10.26254559 8.42533463 18.54434945 19.76595511 21 33 C22.3617842 49.09064709 20.30135263 64.25922457 9.71875 77.0390625 C1.01338032 86.97109791 -10.54827578 95.3125929 -24 97 C-41.83849229 98.10608066 -55.84825512 94.16597975 -69.5234375 82.421875 C-79.25082391 72.90928892 -85.1483152 60.13735264 -85.38061523 46.52685547 C-85.3461738 29.87816615 -81.36674472 17.52705537 -69.6875 5.1875 C-50.22905464 -13.25028241 -22.06136673 -14.88511529 0 0 Z " fill="#ff0000" transform="translate(288,63)"/>
<path d="M0 0 C1.26612187 0.93693019 2.51745301 1.89432131 3.75 2.875 C5.08221456 3.87648996 6.41525057 4.87689092 7.75 5.875 C7.16671753 9.15744419 6.21022142 10.78764421 3.85838318 13.12738037 C3.24277527 13.74711227 2.62716736 14.36684418 1.99290466 15.00535583 C0.97439171 16.00769005 0.97439171 16.00769005 -0.06469727 17.03027344 C-0.77685394 17.74286819 -1.48901062 18.45546295 -2.2227478 19.18965149 C-4.58025995 21.54507234 -6.94822315 23.88968718 -9.31640625 26.234375 C-10.95230758 27.86468162 -12.58754815 29.4956515 -14.22215271 31.1272583 C-18.52774484 35.42139194 -22.84226994 39.70644078 -27.15869141 43.98968506 C-31.56107489 48.36138956 -35.95498605 52.74159092 -40.34960938 57.12109375 C-48.97478317 65.71408564 -57.60941407 74.29750771 -66.25 82.875 C-74.86158356 75.84562579 -80.17786919 66.93022302 -82.25 55.875 C-83.47040491 43.48263193 -83.31975515 31.98234382 -77.25 20.875 C-76.74210938 19.91464844 -76.23421875 18.95429688 -75.7109375 17.96484375 C-68.31773842 5.22821879 -56.50816699 -3.41665761 -42.3203125 -7.2890625 C-28.00526345 -10.57839762 -12.31424955 -8.04852912 0 0 Z " fill="#000000" transform="translate(285.25,360.125)"/>
<path d="M0 0 C8.56005438 6.65226482 14.01959053 16.32713462 16 27 C17.3617842 43.09064709 15.30135263 58.25922457 4.71875 71.0390625 C-3.98661968 80.97109791 -15.54827578 89.3125929 -29 91 C-47.16930456 92.12659276 -61.102915 87.86165336 -75 76 C-70.85881237 71.06194816 -66.55359152 66.41372702 -61.98486328 61.87133789 C-60.97405449 60.86031006 -60.97405449 60.86031006 -59.94282532 59.82885742 C-57.7376857 57.62440874 -55.52903641 55.42351316 -53.3203125 53.22265625 C-51.78167206 51.6858829 -50.24325375 50.14888712 -48.70504761 48.61167908 C-44.67298834 44.58342204 -40.63793405 40.5581783 -36.60223389 36.53356934 C-32.47778978 32.41938884 -28.35620569 28.30234535 -24.234375 24.18554688 C-16.15903561 16.12090432 -8.08052706 8.05944443 0 0 Z " fill="#ff0000" transform="translate(293,69)"/>
<path d="M0 0 C9.69575351 8.52051066 15.48929553 20.54006268 16.37890625 33.37109375 C16.99464189 48.87314393 12.95526262 62.25011066 2.8125 74.125 C-7.57033504 85.1396852 -19.39444415 91.02573109 -34.53173828 91.59179688 C-48.95061255 91.74976102 -60.96836174 89.00231705 -72 79 C-72.69931961 77.68349922 -73.37122416 76.35161502 -74 75 C-73.08767105 74.08989166 -72.1753421 73.17978333 -71.23536682 72.24209595 C-62.65355944 63.68052734 -54.07436875 55.11634446 -45.49775791 46.54957008 C-41.08796192 42.14500104 -36.67723708 37.74137046 -32.2644043 33.33984375 C-28.00881216 29.09508714 -23.75564079 24.84791905 -19.50416374 20.59904099 C-17.87866818 18.97539846 -16.25229024 17.35263883 -14.62503242 15.73076248 C-12.35260467 13.46555394 -10.08328522 11.19727578 -7.81469727 8.92822266 C-7.13568863 8.2528093 -6.45667999 7.57739594 -5.75709534 6.8815155 C-5.14148743 6.26453293 -4.52587952 5.64755035 -3.89161682 5.01187134 C-3.08550886 4.20714606 -3.08550886 4.20714606 -2.26311588 3.38616371 C-0.88876681 2.00409392 -0.88876681 2.00409392 0 0 Z " fill="#000000" transform="translate(293,367)"/>
<path d="M0 0 C9.26160985 8.44440898 15.53250267 19.6265168 16.51953125 32.19921875 C17.32660348 50.2374402 12.45707225 63.451755 0.203125 76.984375 C-10.72757253 87.54137347 -24.80145263 91.45199238 -39.53442383 91.43383789 C-51.97608744 91.18633967 -62.15112455 86.66976886 -72 79 C-73.02311837 77.68432277 -74.02689531 76.35308722 -75 75 C-74.50314162 74.57382794 -74.00628325 74.14765589 -73.49436855 73.70856953 C-68.84373067 69.68491112 -64.38912136 65.53348697 -60.04907227 61.1784668 C-59.40577469 60.53692154 -58.76247711 59.89537628 -58.09968567 59.23439026 C-56.00275991 57.14181809 -53.90945645 55.0456668 -51.81640625 52.94921875 C-50.35064542 51.48413233 -48.88473624 50.01919432 -47.41868591 48.55439758 C-44.36188852 45.49906792 -41.30689101 42.44195308 -38.25317383 39.38354492 C-34.3334451 35.45808903 -30.40920304 31.53718047 -26.48362827 27.61757183 C-23.46305434 24.60060269 -20.44485531 21.58126679 -17.42738152 18.56119728 C-15.98038117 17.11352901 -14.53263528 15.66660554 -13.08413887 14.22043419 C-11.06872352 12.20754725 -9.05652238 10.19150227 -7.04516602 8.17456055 C-6.14368835 7.27611923 -6.14368835 7.27611923 -5.22399902 6.35952759 C-2.24780258 3.45589508 -2.24780258 3.45589508 0 0 Z " fill="#000000" transform="translate(293,218)"/>
</svg>